<svg height="512" viewBox="0 0 50 58" width="512" xmlns="http://www.w3.org/2000/svg"><g id="Page-1" fill="none" fill-rule="evenodd"><g id="007---Robin"><path id="Path" d="m5.57 13.74c2.98-9.43 12.93-13.74 19.43-13.74s16.45 4.31 19.43 13.74z" fill="#e64c3c"/><path id="Path" d="m2.64 24.17c-1.10100561-.0486681-1.95515835-.9788449-1.91-2.08-.01095061-1.7764108.42582459-3.5269507 1.27-5.09.91398456-1.3549622 2.1378117-2.4725186 3.57-3.26 5-3.02 13.36-4.74 19.43-4.74s14.43 1.72 19.43 4.74c1.4321883.7874814 2.6560154 1.9050378 3.57 3.26.8441754 1.5630493 1.2809506 3.3135892 1.27 5.09.0451583 1.1011551-.8089944 2.0313319-1.91 2.08z" fill="#c03a2b"/><g fill="#802f34"><path id="Path" d="m26 13v5.02c-.33-.02-.66-.02-1-.02s-.67 0-1 .02v-5.02c0-.5522847.4477153-1 1-1s1 .4477153 1 1z"/><path id="Path" d="m32 14v4.58c-.65-.11-1.32-.21-2-.29v-4.29c0-.5522847.4477153-1 1-1s1 .4477153 1 1z"/><path id="Path" d="m38 15v5.03c-.64-.21-1.3-.41-2-.59v-4.44c0-.5522847.4477153-1 1-1s1 .4477153 1 1z"/><path id="Path" d="m44 18v4.55c-.62-.33-1.28-.66-2-.98v-3.57c0-.5522847.4477153-1 1-1s1 .4477153 1 1z"/><path id="Path" d="m20 14v4.29c-.68.08-1.35.18-2 .29v-4.58c0-.5522847.4477153-1 1-1s1 .4477153 1 1z"/><path id="Path" d="m14 15v4.44c-.7.18-1.36.38-2 .59v-5.03c0-.5522847.4477153-1 1-1s1 .4477153 1 1z"/><path id="Path" d="m8 18v3.57c-.72.32-1.38.65-2 .98v-4.55c0-.5522847.44771525-1 1-1s1 .4477153 1 1z"/></g><path id="Path" d="m9.96 53.24c-5.47-4.09-8.96-10.69-8.96-19.24-.04465848-3.3483053.51077851-6.6775404 1.64-9.83.43647253.0272822.86950615-.0924181 1.23-.34 3.93-2.66 11.6-5.83 21.13-5.83s17.2 3.17 21.13 5.83c.3604939.2475819.7935275.3672822 1.23.34 1.1292215 3.1524596 1.6846585 6.4816947 1.64 9.83 0 8.55-3.49 15.15-8.96 19.24z" fill="#a56a43"/><path id="Path" d="m25.6 37.613c1.2198866-1.114288 2.23759-2.4314155 3.008-3.893.2410073-.4276837.1359279-.9670633-.248-1.273-.9409054-.8221799-2.1161379-1.3282993-3.36-1.447-1.245264.1178852-2.4220123.6240549-3.364 1.447-.3839279.3059367-.4890073.8453163-.248 1.273.7716123 1.4618934 1.7906842 2.7790406 3.012 3.893.3544214.2700476.8455786.2700476 1.2 0z" fill="#f29c1f"/><circle id="Oval" cx="12" cy="30" fill="#fff" r="3"/><circle id="Oval" cx="12.5" cy="30.5" fill="#464f5d" r="1.5"/><circle id="Oval" cx="12" cy="29" fill="#fff" r="1"/><circle id="Oval" cx="38" cy="30" fill="#fff" r="3"/><circle id="Oval" cx="37.5" cy="30.5" fill="#464f5d" r="1.5"/><circle id="Oval" cx="37" cy="29" fill="#fff" r="1"/><path id="Path" d="m40.04 53.24c-4.3621798 3.1802434-9.6423883 4.8513732-15.04 4.76-5.3976117.0913732-10.6778202-1.5797566-15.04-4.76 2.24-3.64 8.13-6.24 15.04-6.24s12.8 2.6 15.04 6.24z" fill="#e64c3c"/></g></g></svg>