<svg height="512" viewBox="0 0 50 59" width="512" xmlns="http://www.w3.org/2000/svg"><g id="Page-1" fill="none" fill-rule="evenodd"><g id="009---Bird" transform="translate(0 -1)"><path id="Path" d="m46.22 42.21c.3291959 3.3671797.2956702 6.759983-.1 10.12-.0640454.4050916-.3766594.7257213-.78.8-1.3.27-4.3.9-7.11 1.57-.2969325.0701775-.6096579.0009551-.8492353-.18798-.2395774-.188935-.3797916-.4769088-.3807647-.78202v-5.86l4.66-3.1z" fill="#df4d60"/><path id="Path" d="m13 47.87v5.86c-.0009731.3051112-.1411873.593085-.3807647.78202-.2395774.1889351-.5523028.2581575-.8492353.18798-2.81-.67-5.81-1.3-7.11-1.57-.40334061-.0742787-.71595463-.3949084-.78-.8-.39567016-3.360017-.42919589-6.7528203-.1-10.12l4.56 2.56z" fill="#df4d60"/><path id="Path" d="m48.88 27c-1.2585724-3.1415922-3.210471-5.9583426-5.71-8.24-.3111204-.2876195-.5714458-.6257045-.77-1-.4-.75-1.01-1.86-1.2-2.23-.55-1.06-1.08-2.14-1.61-3.21 1.2650859.0202602 2.4882792-.4532339 3.41-1.32 3-3-2-5-2-5s3-5-2-5c-2.1329378-.05598182-4.1206808 1.07656944-5.16 2.94-2.4863446-2.03104846-5.6324788-3.07738719-8.84-2.94-3.5238888-.16656364-6.9617229 1.12036478-9.51 3.56-.9338768-2.19427637-3.105642-3.60256128-5.49-3.56-5 0-2 5-2 5s-5 2-2 5c1.20239404 1.0763757 2.8273911 1.5506395 4.42 1.29-.53 1.08-1.06 2.17-1.62 3.24-.19.37-.8 1.48-1.2 2.23-.19855419.3742955-.45887965.7123805-.77 1-2.49952899 2.2816574-4.45142763 5.0984078-5.71 8.24-.73616915 1.9149464-1.11575242 3.9484282-1.12 6 0 4.44 1.58 7.31 3.78 9.21 1.3503189 1.125504 2.89599387 1.9932514 4.56 2.56 1.05610334 1.0243608 2.2552648 1.8900476 3.56 2.57.35.18.72.36 1.1.53 3.8085136 1.5362109 7.8954427 2.2616408 12 2.13 4.1045573.1316408 8.1914864-.5937891 12-2.13.38-.17.75-.35 1.1-.53 1.3047352-.6799524 2.5038967-1.5456392 3.56-2.57 1.6667833-.5605122 3.2135592-1.4288777 4.56-2.56 2.2-1.9 3.78-4.77 3.78-9.21-.0042476-2.0515718-.3838309-4.0850536-1.12-6z" fill="#2980ba"/><path id="Path" d="m21.684 56.071c-.7816755-2.0090521-1.0853429-4.1723824-.887-6.319.023633-.5407055-.3872012-1.0020849-.9270171-1.0410686s-1.01268.358578-1.0669829.8970686c-.1981361 2.2570445.074274 4.5306474.8 6.677-1.0964906.4022453-1.9932015 1.2157414-2.5 2.268-.2468713.4942948-.0462948 1.0951287.448 1.342.4942949.2468712 1.0951287.0462948 1.342-.448.3935848-.8239473 1.1966798-1.3754795 2.107-1.447.2741851-.0261168.5456088.0722548.7393932.267977.1937844.1957223.2894505.4681113.2606068.742023.0017863.3572656.1940359.6864396.5043301.8635254.3102943.1770858.6914921.1751798 1-.005s.4974562-.5112598.4956699-.8685254c.0306634-1.4055239-.9412849-2.6347279-2.316-2.929z" fill="#805333"/><path id="Path" d="m32.9 58.553c-.5067985-1.0522586-1.4035094-1.8657547-2.5-2.268.725726-2.1463526.9981361-4.4199555.8-6.677-.0543029-.5384906-.527167-.9360523-1.0669829-.8970686s-.9506501.5003631-.9270171 1.0410686c.1983429 2.1466176-.1053245 4.3099479-.887 6.319-1.3759107.2930287-2.3493771 1.5225601-2.319 2.929.0005356.545859.4411543.9891562.987.993h.013c.5436474-.0030748.9864984-.4375116 1-.981-.029248-.2732887.0654939-.5453044.2581886-.7412914.1926947-.1959869.4630665-.295323.7368114-.2707086.9116381.0698804 1.7163768.6217557 2.11 1.447.2468713.4942948.8477051.6948712 1.342.448.4942948-.2468713.6948713-.8477052.448-1.342z" fill="#805333"/><path id="Path" d="m40 41c-.0070782 2.2525779-.6670493 4.4547971-1.9 6.34-.35.18-.72.36-1.1.53-3.8085136 1.5362109-7.8954427 2.2616408-12 2.13-4.1045573.1316408-8.1914864-.5937891-12-2.13-.38-.17-.75-.35-1.1-.53-1.2329507-1.8852029-1.8929218-4.0874221-1.9-6.34.0393231-3.4103513 1.5218697-6.6443378 4.08-8.9 3.6058824.6250094 7.2604458.9262096 10.92.9 3.6595542.0262096 7.3141176-.2749906 10.92-.9 2.5581303 2.2556622 4.0406769 5.4896487 4.08 8.9z" fill="#ecf0f1"/><path id="Path" d="m41.66 44.77c-1.0561033 1.0243608-2.2552648 1.8900476-3.56 2.57 1.2329507-1.8852029 1.8929218-4.0874221 1.9-6.34-.0393231-3.4103513-1.5218697-6.6443378-4.08-8.9 3.450608-.5619879 6.7976794-1.6372303 9.93-3.19.76 5.56.1 11.66-4.19 15.86z" fill="#3b97d3"/><path id="Path" d="m48.88 27c-.9475718.7307021-1.9620828 1.3702123-3.03 1.91-3.1323206 1.5527697-6.479392 2.6280121-9.93 3.19-3.6058824.6250094-7.2604458.9262096-10.92.9-3.6595542.0262096-7.3141176-.2749906-10.92-.9-3.450608-.5619879-6.79767937-1.6372303-9.93-3.19-1.06791723-.5397877-2.08242816-1.1792979-3.03-1.91 1.25857237-3.1415922 3.21047101-5.9583426 5.71-8.24.31112035-.2876195.57144581-.6257045.77-1 .4-.75 1.01-1.86 1.2-2.23 1.83 1.08 6.92 3.47 16.2 3.47s14.37-2.39 16.2-3.47c.19.37.8 1.48 1.2 2.23.1985542.3742955.4588796.7123805.77 1 2.499529 2.2816574 4.4514276 5.0984078 5.71 8.24z" fill="#ff5364"/><path id="Path" d="m41.2 15.53c-1.83 1.08-6.92 3.47-16.2 3.47s-14.37-2.39-16.2-3.47c.56-1.07 1.09-2.16 1.62-3.24 1.0277434-2.2455401 2.2986755-4.37158483 3.79-6.34l.01.01c1.1597674-.63139167 2.4595025-.96148314 3.78-.96 2.9109462.00060035 5.5918298 1.5823217 7 4.13 1.4081702-2.5476783 4.0890538-4.12939965 7-4.13 1.3204975-.00148314 2.6202326.32860833 3.78.96.0055228 0 .01.00447715.01.01 1.4996017 1.96827007 2.7742018 4.098194 3.8 6.35.53 1.07 1.06 2.15 1.61 3.21z" fill="#ecf0f1"/><path id="Path" d="m35.78 5.96c-1.1597674-.63139167-2.4595025-.96148314-3.78-.96-2.9109462.00060035-5.5918298 1.5823217-7 4.13-1.4081702-2.5476783-4.0890538-4.12939965-7-4.13-1.3204975-.00148314-2.6202326.32860833-3.78.96l-.01-.01c.3924269-.49373264.8202206-.95828981 1.28-1.39 2.5482771-2.43963522 5.9861112-3.72656364 9.51-3.56 3.2075212-.13738719 6.3536554.90895154 8.84 2.94.7163318.60277965 1.3666431 1.27990787 1.94 2.02z" fill="#3b97d3"/><path id="Path" d="m10 41c.0070782 2.2525779.6670493 4.4547971 1.9 6.34-1.3047352-.6799524-2.50389666-1.5456392-3.56-2.57-4.29-4.2-4.95-10.3-4.19-15.86 3.13232063 1.5527697 6.479392 2.6280121 9.93 3.19-2.5581303 2.2556622-4.0406769 5.4896487-4.08 8.9z" fill="#3b97d3"/><circle id="Oval" cx="18" cy="13" fill="#464f5d" r="1"/><circle id="Oval" cx="32" cy="13" fill="#464f5d" r="1"/><path id="Path" d="m25 17c-.1551273.0001447-.3081611-.0358028-.447-.105l-2-1c-.3197527-.1596977-.5300187-.4778505-.5515928-.8346134-.021574-.3567628.1488214-.6979349.4470001-.895.2981786-.1970651.67884-.2200843.9985927-.0603866l1.553.777 1.553-.777c.3197527-.1596977.7004141-.1366785.9985927.0603866.2981787.1970651.4685741.5382372.447.895-.021574.3567629-.23184.6749157-.5515927.8346134l-2 1c-.1388389.0691972-.2918727.1051447-.447.105z" fill="#f29c1f"/><path id="Path" d="m25 30c-.1975323.0000443-.3906531-.0584139-.555-.168l-2.592-1.732-2.537.845c-.3593148.1195324-.7553247.0258526-1.023-.242l-1.564-1.563-2.413.805c-.3593148.1195324-.7553247.0258526-1.023-.242l-1.564-1.563-2.413.805c-.35931476.1195324-.7553247.0258526-1.023-.242l-2-2c-.37897221-.3923789-.37355237-1.0160848.01218142-1.4018186.3857338-.3857338 1.00943969-.3911536 1.40181858-.0121814l1.564 1.563 2.413-.805c.3593148-.1195324.7553247-.0258526 1.023.242l1.564 1.563 2.413-.805c.3593148-.1195324.7553247-.0258526 1.023.242l1.564 1.563 2.413-.805c.292832-.0975013.6142786-.0543219.871.117l2.445 1.636 2.445-1.63c.2571005-.1703152.578068-.2134303.871-.117l2.413.805 1.564-1.563c.2676753-.2678526.6636852-.3615324 1.023-.242l2.413.805 1.564-1.563c.2676753-.2678526.6636852-.3615324 1.023-.242l2.413.805 1.564-1.563c.3923789-.3789722 1.0160848-.3735524 1.4018186.0121814s.3911536 1.0094397.0121814 1.4018186l-2 2c-.2676753.2678526-.6636852.3615324-1.023.242l-2.413-.805-1.564 1.563c-.2676753.2678526-.6636852.3615324-1.023.242l-2.413-.805-1.564 1.563c-.2676753.2678526-.6636852.3615324-1.023.242l-2.537-.851-2.592 1.728c-.1638988.1110006-.3570539.1708613-.555.172z" fill="#fff"/></g></g></svg>