<svg height="512" viewBox="0 0 54 58" width="512" xmlns="http://www.w3.org/2000/svg"><g id="Page-1" fill="none" fill-rule="evenodd"><g id="010---Deer" transform="translate(0 -1)"><path id="Path" d="m46.56 10.36c-.56 1.64-1.56 2.64-1.56 4.64 0 2.09.51 5.55.32 8.15v.01l-2.64 2.24h-35.36l-2.45-2.11c1.98-6.02 7.6-15.29 20.13-15.29 7.59 0 11.63 1.85 19.31-.27z" fill="#e64c3c"/><path id="Path" d="m13.57 28.72-3.71 4.38-3.21 3.8c-6.65-1.06-6.65-9.99-6.65-12.78 0-2.41 1.98-2.87 4.87-.83.75678198.5496769 1.46899396 1.1582336 2.13 1.82.1.1.21.2.32.29 1.39996138 1.2372217 3.0219877 2.1975427 4.78 2.83.54.21 1.04.37 1.47.49z" fill="#805333"/><path id="Path" d="m50 24.12c0 2.79 0 11.72-6.65 12.78l-3.21-3.8-3.71-4.38c.43-.12.93-.28 1.47-.49 1.7580123-.6324573 3.3800386-1.5927783 4.78-2.83.11-.09.22-.19.32-.29.7133732-.7181687 1.4898278-1.3707922 2.32-1.95v-.01c2.79-1.87 4.68-1.39 4.68.97z" fill="#805333"/><path id="Path" d="m45 44c0 5.43-3 9.6-7.67 12.15-3.8101548 1.9575427-8.0472793 2.9369267-12.33 2.85-4.2827207.0869267-8.5198452-.8924573-12.33-2.85-4.67-2.55-7.67-6.723-7.67-12.15.0250549-2.4587458.58824668-4.8821771 1.65-7.1 1.55402505-3.2833649 3.939596-6.1033028 6.92-8.18.897439-.6451228 1.8474399-1.2137854 2.84-1.7 5.4099744-2.6933928 11.7700256-2.6933928 17.18 0 .9925601.4862146 1.942561 1.0548772 2.84 1.7 2.980404 2.0766972 5.3659749 4.8966351 6.92 8.18 1.0617533 2.2178229 1.6249451 4.6412542 1.65 7.1z" fill="#cf976a"/><path id="Path" d="m30.707 52.29c-.3904999-.3903819-1.0235001-.3903819-1.414 0-.9479678.7640721-2.2831893.8212437-3.293.141v-3.431h-2v3.434c-1.0084072.6851987-2.3468541.627889-3.293-.141-.395671-.3438487-.9897121-.3237983-1.3612973.0459475-.3715853.3697457-.3945836.9636799-.0527027 1.3610525 1.5891944 1.4023256 3.9117544 1.5915652 5.707.465.8037265.4583541 1.7108308.7047451 2.636.716 1.136771.0121132 2.235261-.4103279 3.071-1.181.3877236-.3900375.3877236-1.0199625 0-1.41z" fill="#a56a43"/><circle id="Oval" cx="37" cy="43.997" fill="#fff" r="3"/><circle id="Oval" cx="36.5" cy="44.497" fill="#464f5d" r="1.5"/><circle id="Oval" cx="13" cy="43.997" fill="#fff" r="3"/><ellipse id="Oval" cx="25" cy="47.997" fill="#464f5d" rx="3" ry="2"/><path id="Path" d="m13.57 28.72c-.43-.12-.93-.28-1.47-.49-1.7580123-.6324573-3.38003862-1.5927783-4.78-2.83 4.595358-4.8361032 11.0098734-7.5209117 17.68-7.4 6.6701266-.1209117 13.084642 2.5638968 17.68 7.4-1.3999614 1.2372217-3.0219877 2.1975427-4.78 2.83-.54.21-1.04.37-1.47.49z" fill="#ecf0f1"/><path id="Path" d="m40.97 33.03c-.26.02-.53.04-.83.07-3.72.38-10.11 1.88-12.24 9.22-1.9097908-.4266872-3.8902092-.4266872-5.8 0-2.13-7.34-8.52-8.84-12.24-9.22-.3-.03-.57-.05-.83-.07 1.288499-1.6563304 2.8189779-3.109274 4.54-4.31.897439-.6451228 1.8474399-1.2137854 2.84-1.7 5.4099744-2.6933928 11.7700256-2.6933928 17.18 0 .9925601.4862146 1.942561 1.0548772 2.84 1.7 1.7210221 1.200726 3.251501 2.6536696 4.54 4.31z" fill="#a56a43"/><path id="Path" d="m30 44c-.1534127.0013715-.3050529-.0328588-.443-.1-2.9198548-1.1946906-6.1921452-1.1946906-9.112 0-.4919013.231211-1.0784093.0271837-1.3206132-.4593989-.242204-.4865827-.0514051-1.0775264.4296132-1.3306011 1.7150432-.7552717 3.572169-1.1337898 5.446-1.11 1.8734384-.0270824 3.7308896.3480225 5.447 1.1.4214702.2040519.6449027.6732513.5376645 1.129074-.1072383.4558226-.5164267.7761896-.9846645.770926z" fill="#805333"/><circle id="Oval" cx="13.5" cy="44.497" fill="#464f5d" r="1.5"/><circle id="Oval" cx="13" cy="42.997" fill="#fff" r="1"/><circle id="Oval" cx="36" cy="42.997" fill="#fff" r="1"/><g fill="#cf976a"><path id="Path" d="m25 30c-.5522847 0-1-.4477153-1-1v-1c0-.5522847.4477153-1 1-1s1 .4477153 1 1v1c0 .5522847-.4477153 1-1 1z"/><path id="Path" d="m29 32c-.5522847 0-1-.4477153-1-1v-1c0-.5522847.4477153-1 1-1s1 .4477153 1 1v1c0 .5522847-.4477153 1-1 1z"/><path id="Path" d="m21 32c-.5522847 0-1-.4477153-1-1v-1c0-.5522847.4477153-1 1-1s1 .4477153 1 1v1c0 .5522847-.4477153 1-1 1z"/><path id="Path" d="m25 35c-.5522847 0-1-.4477153-1-1v-1c0-.5522847.4477153-1 1-1s1 .4477153 1 1v1c0 .5522847-.4477153 1-1 1z"/></g><path id="Path" d="m54 6c0 2.76142375-2.2385763 5-5 5-.8552491.0032636-1.6964578-.2173813-2.44-.64-1.038564-.58160546-1.836174-1.51392291-2.25-2.63-.6930022-1.87527724-.2023131-3.98310228 1.2476613-5.35950739 1.4499744-1.37640512 3.5804726-1.7567727 5.4171578-.96714996 1.8366853.78962274 3.0264498 2.59742871 3.0251809 4.59665735z" fill="#ecf0f1"/></g></g></svg>