<svg height="512" viewBox="0 0 58 58" width="512" xmlns="http://www.w3.org/2000/svg"><g id="Page-1" fill="none" fill-rule="evenodd"><g id="012---Owl"><path id="Path" d="m8.64 31.93c-8.64-.77-8.64-8.93-8.64-8.93h3c-2-3-1-8-1-8 1.72096739 3.3135304 4.60573357 5.8742056 8.1 7.19l1.12 6.01z" fill="#805333"/><path id="Path" d="m24.33 6.8c-.2169304-.57538962-.3287064-1.18507696-.33-1.8.0000001-2.76142369 2.2385763-4.99999985 5-4.99999985s4.9999999 2.23857616 5 4.99999985c-.0012936.61492304-.1130696 1.22461038-.33 1.8z" fill="#ecf0f1"/><path id="Path" d="m12.52 18.43c1.17-3.13 5.41-9.42 11.81-11.63 3.0219761-1.0666314 6.3180239-1.0666314 9.34 0 6.4 2.21 10.64 8.5 11.81 11.63z" fill="#e64c3c"/><path id="Path" d="m46.78 28.2 1.12-6.01c3.4942664-1.3157944 6.3790326-3.8764696 8.1-7.19 0 0 1 5-1 8h3s0 8.16-8.64 8.93z" fill="#805333"/><path id="Path" d="m11.22 28.2c-1.0069099-1.8318427-1.39948521-3.9384297-1.12-6.01.1090905-.7519148.3106154-1.4874809.6-2.19.5476918-.5880402 1.1579777-1.1144957 1.82-1.57 2.49-1.77 7.68-4.43 16.48-4.43s13.99 2.66 16.48 4.43c.6620223.4555043 1.2723082.9819598 1.82 1.57.2893846.7025191.4909095 1.4380852.6 2.19.2794852 2.0715703-.1130901 4.1781573-1.12 6.01z" fill="#c03a2b"/><path id="Path" d="m53 53-.4 3.24c-.1216109 1.0061223-.9765572 1.7622557-1.99 1.76h-43.22c-1.01344275.0022557-1.86838908-.7538777-1.99-1.76l-.4-3.24s-1.48-11.8 3.64-21.07c.72435911-1.3318824 1.5892924-2.5823479 2.58-3.73 3.6-4.18 9.18-7.2 17.78-7.2s14.18 3.02 17.78 7.2c.9907076 1.1476521 1.8556409 2.3981176 2.58 3.73 5.12 9.27 3.64 21.07 3.64 21.07z" fill="#a56a43"/><path id="Path" d="m49 58c1-9-2.05-14.94-2.01-18.49.01-.17.01-.34.01-.51-.0042996-4.3024644-2.7601039-8.1199018-6.8424619-9.4784199-4.0823581-1.358518-8.576061.0464445-11.1575381 3.4884199-2.5814771-3.4419754-7.07518-4.8469379-11.1575381-3.4884199-4.082358 1.3585181-6.8381623 5.1759555-6.8424619 9.4784199 0 .17 0 .34.01.51.04 3.55-3.01 9.49-2.01 18.49z" fill="#fdd7ad"/><path id="Path" d="m29 51c5-2 5-6 5-6s-1-2-5-2-5 2-5 2 0 4 5 6z" fill="#f29c1f"/><circle id="Oval" cx="20" cy="38" fill="#f0c419" r="4"/><circle id="Oval" cx="20" cy="38" fill="#464f5d" r="2"/><circle id="Oval" cx="18.5" cy="36.5" fill="#fff" r="1.5"/><circle id="Oval" cx="38" cy="38" fill="#f0c419" r="4"/><circle id="Oval" cx="38" cy="38" fill="#464f5d" r="2"/><circle id="Oval" cx="36.5" cy="36.5" fill="#fff" r="1.5"/></g></g></svg>