<svg height="512" viewBox="0 0 44 58" width="512" xmlns="http://www.w3.org/2000/svg"><g id="Page-1" fill="none" fill-rule="evenodd"><g id="013---Wolf" transform="translate(-1)"><path id="Path" d="m16.79 14.69-6.86-5.25c3.58-4.51 8.54-9.44 13.07-9.44s9.49 4.93 13.07 9.44l-6.86 5.25z" fill="#3b97d3"/><path id="Path" d="m5.42 22.22c-1.7-2.89-2.78-10.28-.42-14.22 1.69264462.29140108 3.34662265.77451028 4.93 1.44 2.7358031 1.0684194 5.1138889 2.888383 6.86 5.25z" fill="#d1d4d1"/><path id="Path" d="m29.21 14.69c1.7461111-2.361617 4.1241969-4.1815806 6.86-5.25 1.5833773-.66548972 3.2373554-1.14859892 4.93-1.44 2.36 3.93 1.28 11.32-.42 14.21z" fill="#d1d4d1"/><path id="Path" d="m6 30c-2.24-2.68-1-7-1-7 .13333333-.27.27333333-.53.42-.78 2.34-4.08 6.64-6.47 11.37-7.53 4.0888889-.92 8.3311111-.92 12.42 0 4.76 1.07 9.04 3.49 11.37 7.52.15.25.29.52.42.79 0 0 1.24 4.32-1 7z" fill="#2980ba"/><path id="Path" d="m41.86 34.9c.1513319 1.610849.8962757 3.1078653 2.09 4.2-1.3306266.6074075-2.8593734.6074075-4.19 0 .0554084 1.9436313.799688 3.8043302 2.1 5.25 0 0-3.15 1.05-5.24 0 0 0-2.1 2.1 0 5.25-1.3307989.6066144-2.8592011.6066144-4.19 0 0 0-1.05 8.4-9.43 8.4s-9.43-8.4-9.43-8.4c-1.3307989.6066144-2.8592011.6066144-4.19 0 2.1-3.15 0-5.25 0-5.25-2.09 1.05-5.24 0-5.24 0 1.30031202-1.4456698 2.04459159-3.3063687 2.1-5.25-1.3306266.6074075-2.8593734.6074075-4.19 0 1.19372429-1.0921347 1.93866809-2.589151 2.09-4.2-.8393292.0160059-1.64886892-.3110579-2.24152772-.9056041-.5926588-.5945463-.91714687-1.4051218-.89847228-2.2443959 1.82111546.0259482 3.59254782-.5940531 5-1.75 4.1914136-5.0666706 10.4243556-7.9997156 17-7.9997156s12.8085864 2.933045 17 7.9997156c1.4074522 1.1559469 3.1788845 1.7759482 5 1.75.0186746.8392741-.3058135 1.6498496-.8984723 2.2443959-.5926588.5945462-1.4021985.92161-2.2415277.9056041z" fill="#d1d4d1"/><path id="Path" d="m26 52c-.1863875 1.5732047-1.4267953 2.8136125-3 3-1.5732047-.1863875-2.8136125-1.4267953-3-3 0-1.1 1.343-2 3-2s3 .9 3 2z" fill="#464f5d"/><circle id="Oval" cx="15" cy="38" fill="#fff" r="3"/><circle id="Oval" cx="15.5" cy="38.5" fill="#464f5d" r="1.5"/><circle id="Oval" cx="15" cy="37" fill="#fff" r="1"/><circle id="Oval" cx="31" cy="38" fill="#fff" r="3"/><circle id="Oval" cx="30.5" cy="38.5" fill="#464f5d" r="1.5"/><circle id="Oval" cx="30" cy="37" fill="#fff" r="1"/></g></g></svg>