<svg height="512" viewBox="0 0 48 58" width="512" xmlns="http://www.w3.org/2000/svg"><g id="Page-1" fill="none" fill-rule="evenodd"><g id="015---Penguin"><path id="Path" d="m20 45.5v11.5c0 .5522847.4477153 1 1 1h10c.5522847 0 1-.4477153 1-1v-11.5z" fill="#802f34"/><path id="Path" d="m1.5 36.4c-1.00023591-3.0327694-1.50669041-6.2065509-1.5-9.4 0-14.91 10.75-27 24-27s24 12.09 24 27c.0066904 3.1934491-.4997641 6.3672306-1.5 9.4l-22.5.75z" fill="#464f5d"/><path id="Path" d="m8 36s-1.93-4.84-1.99-14.51c-.01-.16-.01-.33-.01-.49.0017608-4.4047717 3.0295874-8.2312525 7.3159528-9.2456923s8.7081329 1.0489704 10.6840472 4.9856923c1.9759143-3.9367219 6.3976818-6.0001321 10.6840472-4.9856923s7.314192 4.8409206 7.3159528 9.2456923c0 .16 0 .33-.01.49-.06 9.67-1.99 14.51-1.99 14.51" fill="#ecf0f1"/><path id="Path" d="m24.612 28.613c.893445-.7676068 1.5988734-1.7299589 2.062-2.813.1121411-.241015.1237055-.5167617.0321383-.7663199-.0915673-.2495582-.2787298-.4523885-.5201383-.5636801-1.3902529-.6253272-2.9817471-.6253272-4.372 0-.2414085.1112916-.428571.3141219-.5201383.5636801-.0915672.2495582-.0800028.5253049.0321383.7663199.4629947 1.0834016 1.1684317 2.0461075 2.062 2.814.3615262.2757724.8629249.2753627 1.224-.001z" fill="#f29c1f"/><path id="Path" d="m42 36v10h-39c-1.65685425 0-3-1.3431458-3-3v-4c0-1.6568542 1.34314575-3 3-3z" fill="#c03a2b"/><g fill="#e64c3c"><path id="Rectangle" d="m20 50h12v4h-12z"/><path id="Rectangle" d="m8 36h8v10h-8z"/><path id="Rectangle" d="m24 36h8v10h-8z"/></g><circle id="Oval" cx="14" cy="20" fill="#fff" r="3"/><circle id="Oval" cx="14.5" cy="20.5" fill="#464f5d" r="1.5"/><circle id="Oval" cx="14" cy="19" fill="#fff" r="1"/><circle id="Oval" cx="34" cy="20" fill="#fff" r="3"/><circle id="Oval" cx="33.5" cy="20.5" fill="#464f5d" r="1.5"/><circle id="Oval" cx="33" cy="19" fill="#fff" r="1"/><path id="Path" d="m48 39v4c0 1.6568542-1.3431458 3-3 3h-5v-10h5c1.6568542 0 3 1.3431458 3 3z" fill="#e64c3c"/></g></g></svg>