<svg height="512" viewBox="0 0 48 58" width="512" xmlns="http://www.w3.org/2000/svg"><g id="Page-1" fill="none" fill-rule="evenodd"><g id="016---Squirrel" transform="translate(-1)"><path id="Path" d="m21 55.72c-3.1708956-.3972134-6.2287894-1.4312509-8.99-3.04-.6495941-.3958393-1.023855-1.1212109-.97-1.88.0415767-2.2646349.8527232-4.4476769 2.3-6.19l11.66 4.39z" fill="#3b97d3"/><path id="Path" d="m25 49 11.66-4.39c1.4472768 1.7423231 2.2584233 3.9253651 2.3 6.19.053855.7587891-.3204059 1.4841607-.97 1.88-2.7612106 1.6087491-5.8191044 2.6427866-8.99 3.04z" fill="#3b97d3"/><path id="Path" d="m29 53v3c-.0032948 1.1032019-.8967981 1.9967052-2 2h-4c-1.1032019-.0032948-1.9967052-.8967981-2-2v-3c0-2.209139 1.790861-4 4-4s4 1.790861 4 4z" fill="#2980ba"/><path id="Path" d="m27.04 39.15c-.6742691-.1098653-1.3569129-.1600597-2.04-.15-.6830871-.0100597-1.3657309.0401347-2.04.15l-19.18-22.07c.34905879-1.2658108.83527279-2.4897288 1.45-3.65-2.97876576-1.2823775-4.68664869-4.44289119-4.12706868-7.63732506.55958001-3.19443386 3.2400784-5.58621965 6.47737663-5.77970776 3.23729825-.19348812 6.18360265 1.86199271 7.11969205 4.96703282 1.3879935-.58092691 2.8277083-1.02958225 4.3-1.34.65-.15 1.32-.27 2-.36.9943268-.1429107 1.9959123-.22971479 3-.26.33-.01.66-.02 1-.02s.67.01 1 .02c1.0040877.03028521 2.0056732.1170893 3 .26.68.09 1.35.21 2 .36 1.4722917.31041775 2.9120065.75907309 4.3 1.34.9360894-3.10504011 3.8823938-5.16052094 7.119692-4.96703282 3.2372983.19348811 5.9177967 2.5852739 6.4773767 5.77970776.55958 3.19443387-1.1483029 6.35494756-4.1270687 7.63732506.6147272 1.1602712 1.1009412 2.3841892 1.45 3.65z" fill="#a56a43"/><path id="Path" d="m11 6.98c-1.24948818.85240002-2.38821275 1.85676181-3.39 2.99-1.5905523-.20856316-2.73559262-1.63148914-2.59907729-3.22983791.13651532-1.59834877 1.50627525-2.80648511 3.10915859-2.74229623 1.60288334.06418889 2.8716502 1.37798737 2.8799187 2.98213414z" fill="#fb7b76"/><path id="Path" d="m45 7c.0039189 1.50670433-1.1152829 2.78027879-2.61 2.97-1.0017873-1.13323819-2.1405118-2.13759998-3.39-2.99.0035727-1.07179677.5786707-2.06027184 1.5086603-2.59307621.9299895-.53280438 2.0735831-.5289924 3 .01.9264169.53899239 1.4949124 1.53127944 1.4913397 2.60307621z" fill="#fb7b76"/><path id="Path" d="m47 22.86c-.1197009 8.4087028-3.8943734 16.3486568-10.34 21.75-3.2668827 2.7594658-7.3844032 4.3097158-11.66 4.39-4.2755968-.0802842-8.3931173-1.6305342-11.66-4.39-6.44562663-5.4013432-10.22029905-13.3412972-10.34-21.75-.012527-1.9537235.25004952-3.8994828.78-5.78 10.869506.9193772 19.2229522 10.0116818 19.22 20.92 0 .39-.01.77-.04 1.15v.01c-1.18.22-1.96.74-1.96 1.84.1860148 2.1273342 1.8726658 3.8139852 4 4 2.1273342-.1860148 3.8139852-1.8726658 4-4 0-1.1-.78-1.62-1.96-1.84v-.01c-.03-.38-.04-.76-.04-1.15-.0029522-10.9083182 8.350494-20.0006228 19.22-20.92.5299505 1.8805172.792527 3.8262765.78 5.78z" fill="#cf976a"/><path id="Path" d="m29 41c-.1860148 2.1273342-1.8726658 3.8139852-4 4-2.1273342-.1860148-3.8139852-1.8726658-4-4 0-1.1.78-1.62 1.96-1.84v-.01c.6742691-.1098653 1.3569129-.1600597 2.04-.15.6830871-.0100597 1.3657309.0401347 2.04.15v.01c1.18.22 1.96.74 1.96 1.84z" fill="#464f5d"/><g fill="#805333"><path id="Path" d="m26 3.02v12.98c0 .5522847-.4477153 1-1 1s-1-.4477153-1-1v-12.98c.33-.01.66-.02 1-.02s.67.01 1 .02z"/><path id="Path" d="m31 3.64v8.36c0 .5522847-.4477153 1-1 1s-1-.4477153-1-1v-8.72c.68.09 1.35.21 2 .36z"/><path id="Path" d="m21 3.28v8.72c0 .5522847-.4477153 1-1 1s-1-.4477153-1-1v-8.36c.65-.15 1.32-.27 2-.36z"/></g><circle id="Oval" cx="15" cy="31" fill="#fff" r="3"/><circle id="Oval" cx="15.5" cy="31.5" fill="#464f5d" r="1.5"/><circle id="Oval" cx="15" cy="30" fill="#fff" r="1"/><circle id="Oval" cx="35" cy="31" fill="#fff" r="3"/><circle id="Oval" cx="34.5" cy="31.5" fill="#464f5d" r="1.5"/><circle id="Oval" cx="34" cy="30" fill="#fff" r="1"/></g></g></svg>