<svg height="512" viewBox="0 0 46 58" width="512" xmlns="http://www.w3.org/2000/svg"><g id="Page-1" fill="none" fill-rule="evenodd"><g id="018---Wolf"><path id="Path" d="m22 52h12v5c0 .5522847-.4477153 1-1 1h-10c-.5522847 0-1-.4477153-1-1z" fill="#e57e25"/><path id="Path" d="m35.86 40h1.14c1.6568542 0 3 1.3431458 3 3v8c0 1.6568542-1.3431458 3-3 3h-28c-1.65685425 0-3-1.3431458-3-3v-8c0-1.6568542 1.34314575-3 3-3z" fill="#f29c1f"/><path id="Path" d="m46 24c-.6513004 1.726848-2.2945438 2.8779123-4.14 2.9.1513319 1.610849.8962757 3.1078653 2.09 4.2-1.3306266.6074075-2.8593734.6074075-4.19 0 .0554084 1.9436313.799688 3.8043302 2.1 5.25 0 0-3.15 1.05-5.24 0 0 0-2.1 2.1 0 5.25-1.3307989.6066144-2.8592011.6066144-4.19 0 0 0-1.05 8.4-9.43 8.4s-9.43-8.4-9.43-8.4c-1.3307989.6066144-2.8592011.6066144-4.19 0 2.1-3.15 0-5.25 0-5.25-2.09 1.05-5.24 0-5.24 0 1.30031202-1.4456698 2.04459159-3.3063687 2.1-5.25-1.3306266.6074075-2.8593734.6074075-4.19 0 1.19372429-1.0921347 1.93866809-2.589151 2.09-4.2-1.84545616-.0220877-3.48869961-1.173152-4.14-2.9 5-1 5-3 5-3s-3 1-5-3c0 0 3 0 5-4-1.7-2.89-2.36-10.06 0-14 .1.04 6.66.44 10.58 5.63 4.7009559-2.16988065 10.1161201-2.17353461 14.82-.01 3.91-5.25 10.5-5.58 10.6-5.62 2.36 3.93 1.7 11.11 0 14 2 4 5 4 5 4-2 4-5 3-5 3s0 2 5 3z" fill="#d1d4d1"/><path id="Path" d="m12.831 8.688c-.9518422-1.47703137-2.2936338-2.66204417-3.877-3.424-.30288224-.15798936-.66520731-.15165192-.96237918.01683301-.29717186.16848493-.48866195.47613923-.50862082.81716699-.07831523 1.63310882.10225039 3.26832455.535 4.845.08851159.2718889.2898214.4924935.55249677.6054516.26267536.1129581.56127266.1073281.81950323-.0154516l3.011-1.4c.2608608-.1221376.4570865-.34993951.5392399-.62601337.0821535-.27607386.0424019-.57409738-.1092399-.81898663z" fill="#547580"/><path id="Path" d="m37.985 10.935c.4374102-1.59656814.6166739-3.25281594.531-4.906-.0218075-.33890004-.2131268-.64392287-.508737-.81108577-.2956101-.16716291-.6556054-.17389986-.957263-.01791423-1.5998747.75783211-2.9491157 1.95819859-3.888 3.459-.1486755.24380633-.1870796.53919411-.1056886.81291192.0813911.27371782.2749541.50012931.5326886.62308808l3.017 1.431c.25932.1231625.5590652.1289349.8229348.0158479.2638697-.113087.4664104-.3341248.5560652-.6068479z" fill="#547580"/><path id="Path" d="m26 44c-.1863875 1.5732047-1.4267953 2.8136125-3 3-1.5732047-.1863875-2.8136125-1.4267953-3-3 0-1.1 1.343-2 3-2s3 .9 3 2z" fill="#464f5d"/><circle id="Oval" cx="15" cy="30" fill="#fff" r="3"/><circle id="Oval" cx="15.5" cy="30.5" fill="#464f5d" r="1.5"/><circle id="Oval" cx="15" cy="29" fill="#fff" r="1"/><circle id="Oval" cx="31" cy="30" fill="#fff" r="3"/><circle id="Oval" cx="30.5" cy="30.5" fill="#464f5d" r="1.5"/><circle id="Oval" cx="30" cy="29" fill="#fff" r="1"/></g></g></svg>