<svg height="512" viewBox="0 0 58 58" width="512" xmlns="http://www.w3.org/2000/svg"><g id="Page-1" fill="none" fill-rule="evenodd"><g id="019---Robin" fill-rule="nonzero" transform="translate(-3 -1)"><path id="Shape" d="m16.38 15.88c4.0805791-4.2849608 9.7040837-6.76189491 15.62-6.88 5.9159163.11810509 11.5394209 2.5950392 15.62 6.88l6.55 10.25c1.1987322 3.1531382 1.8186643 6.4967062 1.83 9.87 0 13.81-10.75 23-24 23s-24-9.19-24-23c.01133572-3.3732938.63126779-6.7168618 1.83-9.87z" fill="#a56a43"/><path id="Shape" d="m32.6 38.613c1.2198866-1.114288 2.23759-2.4314155 3.008-3.893.2410073-.4276837.1359279-.9670633-.248-1.273-.9409054-.8221799-2.1161379-1.3282993-3.36-1.447-1.245264.1178852-2.4220123.6240549-3.364 1.447-.3839279.3059367-.4890073.8453163-.248 1.273.7716123 1.4618934 1.7906842 2.7790406 3.012 3.893.3544214.2700476.8455786.2700476 1.2 0z" fill="#f29c1f"/><circle id="Oval" cx="19" cy="31" fill="#fff" r="3"/><circle id="Oval" cx="45" cy="31" fill="#fff" r="3"/><path id="Shape" d="m33.84 19c-.5522847 0-1-.4477153-1-1-.0143121-.1223101-.0442218-.2422851-.089-.357-1.09041.9214502-2.4842011 1.405054-3.911 1.357-.4043959-.0000863-.7689341-.2437275-.923678-.6173454-.1547439-.373618-.0692299-.8036603.216678-1.0896546.3713887-.3270996.5841936-.7981024.5841936-1.293s-.2128049-.9659004-.5841936-1.293c-.3789722-.3923789-.3735524-1.0160848.0121814-1.4018186s1.0094397-.3911536 1.4018186-.0121814c.9292206.8446389 1.3484512 2.114092 1.105 3.346.5359923-.2245.9898806-.6085594 1.3-1.1.1497603-.2797596.4222917-.4728722.7358764-.5214336s.6317606.0530749.8591236.2744336c.365718.3610203.6697528.7795748.9 1.239.5604689-.5949895.7324404-1.4575642.443-2.222-.1728651-.5246705.1123295-1.0901349.637-1.263s1.0901349.1123295 1.263.637c.2038716.6744231.2608173 1.3847103.167 2.083-.2176556 1.5230354-1.317021 2.7723856-2.8 3.182-.1022159.0341339-.2092359.0516892-.317.052z" fill="#805333"/><path id="Shape" d="m51.95 10.02c-4.9627423-5.84377139-12.2844614-9.15414263-19.95-9.02-7.6655386-.13414263-14.9872577 3.17622861-19.95 9.02l3.41 2.17c4.2105418-4.68079294 10.2451229-7.30404794 16.54-7.19 6.2948771-.11404794 12.3294582 2.50920706 16.54 7.19z" fill="#95a5a5"/><path id="Shape" d="m47.05 54.26c-4.3802026 3.1497556-9.6553665 4.8111694-15.05 4.74-5.3946335.0711694-10.6697974-1.5902444-15.05-4.74 2.23-3.65 8.13-6.26 15.05-6.26s12.81 2.6 15.05 6.26z" fill="#e64c3c"/><ellipse id="Oval" cx="9.691" cy="18.274" fill="#3b97d3" rx="8.753" ry="6.047" transform="matrix(.453 -.892 .892 .453 -10.99 18.643)"/><ellipse id="Oval" cx="54.309" cy="18.272" fill="#3b97d3" rx="6.047" ry="8.753" transform="matrix(.892 -.453 .453 .892 -2.388 26.563)"/><circle id="Oval" cx="19.5" cy="31.5" fill="#464f5d" r="1.5"/><circle id="Oval" cx="19" cy="30" fill="#fff" r="1"/><circle id="Oval" cx="44.5" cy="31.5" fill="#464f5d" r="1.5"/><circle id="Oval" cx="44" cy="30" fill="#fff" r="1"/></g></g></svg>