<svg height="512" viewBox="0 0 58 59" width="512" xmlns="http://www.w3.org/2000/svg"><g id="Page-1" fill="none" fill-rule="evenodd"><g id="020---Mouse"><g fill="#fdd7ad"><path id="Path" d="m15 56c-.4546859.0023697-.8537323-.3023062-.9712405-.7415518-.1175082-.4392455.0761069-.9024719.4712405-1.1274482l8.186-4.673c.4796593-.2742094 1.0907906-.1076593 1.365.372s.1076593 1.0907906-.372 1.365l-8.179 4.674c-.1523066.0867294-.3247331.1319052-.5.131z"/><path id="Path" d="m20 59c-.3687074-.0003134-.7073293-.2034902-.88111-.5286756s-.1545228-.719615.05011-1.0263244l4-6c.1982824-.297245.5400812-.4661282.8966441-.4430331s.6737195.2346599.832.555c.1582805.32034.1336383.7007881-.0646441.9980331l-4 6c-.1857211.2783647-.4983673.4453846-.833.445z"/><path id="Path" d="m13 51c-.527117-.0016856-.9624152-.4122476-.9949014-.9383653-.0324862-.5261176.348996-.9871134.8719014-1.0536347l8-1c.5500756-.0682072 1.0512928.3224244 1.1195.8725s-.3224244 1.0512928-.8725 1.1195l-8 1c-.0412824.0029025-.0827176.0029025-.124 0z"/><path id="Path" d="m43 56c-.1754301.0011715-.3480085-.0443892-.5-.132l-8.186-4.674c-.4745018-.2764686-.6372682-.8838574-.364597-1.3605515.2726712-.476694.878741-.6443049 1.357597-.3754485l8.193 4.674c.3940621.2254282.5868246.6880224.4694404 1.1265697s-.5154576.7429948-.9694404.7414303z"/><path id="Path" d="m38 59c-.3346327.0003846-.6472789-.1666353-.833-.445l-4-6c-.306518-.4595009-.1825009-1.0804819.277-1.387.4595009-.306518 1.080482-.1825009 1.387.277l4 6c.2046328.3067094.2238907.701139.05011 1.0263244s-.5124026.5283622-.88111.5286756z"/><path id="Path" d="m45 51c-.0418034.0002923-.0835749-.0023811-.125-.008l-9.97-1.242c-.3610703-.036479-.6740379-.265713-.8177416-.5989572-.1437037-.3332443-.0955858-.7181879.1257257-1.0058053.2213114-.2876173.581076-.4327598.9400159-.3792375l9.97 1.242c.5229054.0665213.9043876.5275171.8719014 1.0536347-.0324862.5261177-.4677844.9366797-.9949014.9383653z"/></g><path id="Path" d="m41.27 5.98c1.4925962-.64815315 3.10275-.98175795 4.73-.98 6.4893224.00128925 11.8009261 5.1632193 11.9876503 11.6498549s-4.8191476 11.9455643-11.2976503 12.3201451c.2154193 4.1801295-.7146997 8.3397321-2.69 12.03-4.1 7.13-8.85 15-15 15s-10.9-7.87-15-15c-1.9753003-3.6902679-2.9054193-7.8498705-2.69-12.03-6.47850265-.3745808-11.48437446-5.8335095-11.29765028-12.3201451s5.49832784-11.64856565 11.98765028-11.6498549c1.62725-.00175795 3.2374038.33184685 4.73.98z" fill="#cb8252"/><path id="Path" d="m33 48c-.1883664 2.126237-1.873763 3.8116336-4 4-2.126237-.1883664-3.8116336-1.873763-4-4 0-1.657 1.791-2 4-2s4 .343 4 2z" fill="#e64c3c"/><path id="Path" d="m45.48 12.43c0-.01-.01-.02-.01-.03" fill="#fb7b76"/><path id="Path" d="m45.87 23.36c-.101713.1045155-.2244038.1863093-.36.24-.3638491.1449441-.7788953.062718-1.06-.21-1.74-1.7-7.26-5.39-15.45-5.39s-13.69 3.69-15.42 5.39c-.2861009.2795707-.7127598.3585816-1.08.2-.1270307-.05416-.2424602-.1322447-.34-.23-1.6093085-2.0227747-2.35019262-4.601483-2.06-7.17.0980685-.6850539.2759442-1.3562828.53-2 .0481977-.125431.1194213-.2407454.21-.34.5171828-.5217833 1.079359-.996956 1.68-1.42 2.48-1.77 7.68-4.43 16.48-4.43h.03c8.75 0 13.93 2.63 16.44 4.4.6153621.431158 1.1909826.9164194 1.72 1.45.0939634.0966579.1656395.212705.21.34.2540558.6437172.4319315 1.3149461.53 2 .2901926 2.568517-.4506915 5.1472253-2.06 7.17z" fill="#3b97d3"/><path id="Path" d="m10.1 16.19c-.29019262 2.568517.4506915 5.1472253 2.06 7.17.0975398.0977553.2129693.17584.34.23-.3685565.8955411-1.321066 1.4032663-2.27 1.21-2.84648149-.6271226-5.12591904-2.7539911-5.94842339-5.5502791-.82250434-2.7962879-.05765662-5.8186071 1.99594768-7.8870483 2.0536043-2.06844122 5.07033921-2.85502595 7.87247571-2.0526726-.648207.9817531-1.1943781 2.0271849-1.63 3.12-.600641.423044-1.1628172.8982167-1.68 1.42-.0905787.0992546-.1618023.214569-.21.34-.2540558.6437172-.4319315 1.3149461-.53 2z" fill="#a65a47"/><path id="Path" d="m47.77 24.8c-.9441367.1972896-1.894581-.3073711-2.26-1.2.1355962-.0536907.258287-.1354845.36-.24 1.6093085-2.0227747 2.3501926-4.601483 2.06-7.17-.0980685-.6850539-.2759442-1.3562828-.53-2-.0443605-.127295-.1160366-.2433421-.21-.34-.5290174-.5335806-1.1046379-1.018842-1.72-1.45-.4325977-1.082833-.9754559-2.1182846-1.62-3.09 2.7972723-.78785163 5.8017518.00482125 7.8462849 2.0700881 2.0445331 2.0652668 2.8068514 5.0775912 1.9908164 7.8667719-.816035 2.7891808-3.0817965 4.9155751-5.9171013 5.55314z" fill="#a65a47"/><path id="Path" d="m45.47 12.4c-2.51-1.77-7.69-4.4-16.44-4.4h-.03c-8.8 0-14 2.66-16.48 4.43.4356219-1.0928151.981793-2.1382469 1.63-3.12.7591479-1.18459536 1.6225779-2.29902246 2.58-3.33 2.9-3.14 7.1-5.98 12.27-5.98s9.37 2.84 12.27 5.98c.9574221 1.03097754 1.8208521 2.14540464 2.58 3.33.6445441.9717154 1.1874023 2.007167 1.62 3.09z" fill="#2980ba"/><circle id="Oval" cx="20" cy="36" fill="#fff" r="4"/><circle id="Oval" cx="20.667" cy="36.667" fill="#464f5d" r="2"/><circle id="Oval" cx="20" cy="34.667" fill="#fff" r="1.333"/><circle id="Oval" cx="38" cy="36" fill="#fff" r="4"/><circle id="Oval" cx="37.333" cy="36.667" fill="#464f5d" r="2"/><circle id="Oval" cx="36.667" cy="34.667" fill="#fff" r="1.333"/></g></g></svg>