<svg height="512" viewBox="0 0 58 58" width="512" xmlns="http://www.w3.org/2000/svg"><g id="Page-1" fill="none" fill-rule="evenodd"><g id="021---Moose"><path id="Path" d="m25.44 17.8c-.2882249-.5562838-.4390956-1.1734823-.44-1.8 0-2.209139 1.790861-4 4-4s4 1.790861 4 4c-.0009044.6265177-.1517751 1.2437162-.44 1.8z" fill="#ecf0f1"/><path id="Path" d="m8.42 21.78c-1.53857344-1.1816519-3.01394389-2.443394-4.42-3.78-2-2-4-4-4-8s6-10 8-9-2 5 0 6 7.89-3.73 6 1c-2 5 0 7 2 5s5-4 4 1c-.89 4.47-.99 7.34.43 8.6-.334437.5340498-.6415002 1.0847609-.92 1.65z" fill="#cbb292"/><path id="Path" d="m38.49 24.25c-.2784998-.5652391-.585563-1.1159502-.92-1.65 1.42-1.26 1.32-4.13.43-8.6-1-5 2-3 4-1s4 0 2-5c-1.89-4.73 4 0 6-1s-2-5 0-6 8 5 8 9-2 6-4 8c-1.4060561 1.336606-2.8814266 2.5983481-4.42 3.78z" fill="#cbb292"/><path id="Path" d="m16.63 41.69c-.4184827-1.1851795-.6315438-2.4331086-.63-3.69.0017533-1.9765008.5224473-3.9178966 1.51-5.63h.01c.1642289-.034236.3182706-.1061221.45-.21 1.78-1.43 5.86-6.16 11.03-6.16s9.25 4.73 11.03 6.16c.1317294.1038779.2857711.175764.45.21h.01c.9875527 1.7121034 1.5082467 3.6534992 1.51 5.63.0015438 1.2568914-.2115173 2.5048205-.63 3.69z" fill="#a56a43"/><path id="Path" d="m18.73 25.95c.21-.51.47-1.09.78-1.7.2784998-.5652391.585563-1.1159502.92-1.65 1.1878828-2.0373319 2.9237004-3.7003907 5.01-4.8 2.2534831-1.0666667 4.8665169-1.0666667 7.12 0 2.0862996 1.0996093 3.8221172 2.7626681 5.01 4.8.334437.5340498.6415002 1.0847609.92 1.65.31.61.57 1.19.78 1.7z" fill="#e64c3c"/><path id="Path" d="m19.51 24.25c-.31.61-.57 1.19-.78 1.7-.8445314.5112301-1.6440765 1.0933257-2.39 1.74-.220313.1947202-.3445165.4760045-.34.77.0067532.598761.0501678 1.1965465.13 1.79-8.2 2.03-9.13-8.25-9.13-8.25.49-.09.97-.16 1.42-.22 7.2-.99 10.07 1.23 11.09 2.47z" fill="#805333"/><path id="Path" d="m51 22s-.93 10.28-9.13 8.25c.0798322-.5934535.1232468-1.191239.13-1.79.0045165-.2939955-.119687-.5752798-.34-.77-.7459235-.6466743-1.5454686-1.2287699-2.39-1.74-.21-.51-.47-1.09-.78-1.7 1.02-1.24 3.89-3.46 11.09-2.47.45.06.93.13 1.42.22z" fill="#805333"/><path id="Path" d="m20 37c-.3464401-.000185-.6681037-.1796678-.8501945-.4743943-.1820909-.2947265-.1986643-.6627032-.0438055-.9726057.481-.961 2.188-2.51 5.211-1.5.3394023.1128959.5927937.398285.6647242.748664.0719304.350379-.0485282.712517-.3160001.95-.2674719.2374831-.6413218.3142319-.9807241.201336-2.15-.719-2.784.486-2.789.5-.1712562.337044-.5179464.5486954-.896.547z" fill="#603e26"/><path id="Path" d="m38 37c-.3726239.0002391-.7144752-.2067216-.887-.537-.078-.137-.754-1.2-2.8-.514-.5246705.174522-1.091478-.1093295-1.266-.634s.1093295-1.091478.634-1.266c3.024-1.008 4.731.542 5.211 1.5.1566046.3099187.1412266.6788919-.0406238.9747044-.1818503.2958126-.5041377.4761137-.8513762.4762956z" fill="#603e26"/><path id="Path" d="m42 28.46c-.0067532.598761-.0501678 1.1965465-.13 1.79-.0543573.4622103-.1412395.9200123-.26 1.37-.1258965.5001284-.6096122.8240452-1.12.75h-.01c-.1642289-.034236-.3182706-.1061221-.45-.21-3.1154073-2.5683699-6.9944407-4.0313599-11.03-4.16-4.0355593.1286401-7.9145927 1.5916301-11.03 4.16-.1317294.1038779-.2857711.175764-.45.21h-.01c-.5103878.0740452-.9941035-.2498716-1.12-.75-.1187605-.4499877-.2056427-.9077897-.26-1.37-.0798322-.5934535-.1232468-1.191239-.13-1.79-.0045165-.2939955.119687-.5752798.34-.77.7459235-.6466743 1.5454686-1.2287699 2.39-1.74 6.281769-3.9332764 14.258231-3.9332764 20.54 0 .8445314.5112301 1.6440765 1.0933257 2.39 1.74.220313.1947202.3445165.4760045.34.77z" fill="#c03a2b"/><path id="Path" d="m44 48c0 7-6.72 10-15 10s-15-3-15-10c-.0657577-2.3826036.8915406-4.6793918 2.63-6.31 2.71-2.54 7.24-3.69 12.37-3.69s9.66 1.15 12.37 3.69c1.7384594 1.6306082 2.6957577 3.9273964 2.63 6.31z" fill="#f09372"/><g fill="#f0785a"><path id="Path" d="m18 48c-.5522847 0-1-.4477153-1-1 .1009957-1.6601499 1.0718863-3.1432966 2.553-3.9.4934664-.2485281 1.0949719-.0499664 1.3435.4435s.0499664 1.0949719-.4435 1.3435c-.8067931.417507-1.3519025 1.2102229-1.453 2.113 0 .5522847-.4477153 1-1 1z"/><path id="Path" d="m40 48c-.5522847 0-1-.4477153-1-1-.103198-.9007409-.6479353-1.691041-1.453-2.108-.4934664-.2485281-.6920281-.8500336-.4435-1.3435.2485282-.4934664.8500336-.6920281 1.3435-.4435 1.4796408.7558097 2.4502839 2.2366772 2.553 3.895 0 .5522847-.4477153 1-1 1z"/></g></g></g></svg>