<svg height="512" viewBox="0 0 58 58" width="512" xmlns="http://www.w3.org/2000/svg"><g id="Page-1" fill="none" fill-rule="evenodd"><g id="022---Moose" transform="translate(0 -1)"><path id="Path" d="m6.83 20.61c-1.01-.83-2.07-1.74-2.83-2.5-2-2-4-4-4-8s6-10 8-9-2 5 0 6 7.89-3.73 6 1c-2 5 0 7 2 5s5-4 4 1c-.74 3.73-.93 6.34-.15 7.83z" fill="#cbb292"/><path id="Path" d="m38.15 21.94c.78-1.49.59-4.1-.15-7.83-1-5 2-3 4-1s4 0 2-5c-1.89-4.73 4 0 6-1s-2-5 0-6c2-1 8 5 8 9s-2 6-4 8c-.76.76-1.82 1.67-2.83 2.5z" fill="#cbb292"/><path id="Path" d="m16.38 29.13c-7.72 1.39-10.38-8.13-10.38-8.13.28-.14.56-.27.83-.39 4.2515813-2.0010394 9.2608233-1.4893426 13.02 1.33.38.3.68.57.9.78z" fill="#805333"/><path id="Path" d="m37.25 22.72c.22-.21.52-.48.9-.78 3.7591767-2.8193426 8.7684187-3.3310394 13.02-1.33.27.12.55.25.83.39 0 0-2.66 9.52-10.38 8.13z" fill="#805333"/><path id="Path" d="m16.63 35.7c-.4176553-1.1888504-.6306753-2.4399203-.63-3.7-.0013053-.9692942.1264847-1.9344452.38-2.87.6985366-2.5653851 2.2372437-4.8223902 4.37-6.41 4.9020971-3.6268257 11.5979029-3.6268257 16.5 0 2.1327563 1.5876098 3.6714634 3.8446149 4.37 6.41.2535153.9355548.3813053 1.9007058.38 2.87.0006753 1.2600797-.2123447 2.5111496-.63 3.7z" fill="#a56a43"/><path id="Path" d="m43 52v4c0 1.6568542-1.3431458 3-3 3h-22c-1.6568542 0-3-1.3431458-3-3v-4c-.0010707-1.4752232 1.0725998-2.7313752 2.53-2.96h22.94c1.4574002.2286248 2.5310707 1.4847768 2.53 2.96z" fill="#e64c3c"/><g fill="#802f34"><path id="Path" d="m30 56v3h-2v-3c0-.5522847.4477153-1 1-1s1 .4477153 1 1z"/><path id="Path" d="m35 56v3h-2v-3c0-.5522847.4477153-1 1-1s1 .4477153 1 1z"/><path id="Path" d="m40 55v4h-2v-4c0-.5522847.4477153-1 1-1s1 .4477153 1 1z"/><path id="Path" d="m25 56v3h-2v-3c0-.5522847.4477153-1 1-1s1 .4477153 1 1z"/><path id="Path" d="m20 55v4h-2v-4c0-.5522847.4477153-1 1-1s1 .4477153 1 1z"/></g><path id="Path" d="m20 31c-.3464401-.000185-.6681037-.1796678-.8501945-.4743943-.1820909-.2947265-.1986643-.6627032-.0438055-.9726057.481-.96 2.188-2.511 5.211-1.5.3394023.1128959.5927937.398285.6647242.748664.0719304.350379-.0485282.712517-.3160001.95-.2674719.2374831-.6413218.3142319-.9807241.201336-2.151-.718-2.784.486-2.789.5-.1712562.337044-.5179464.5486954-.896.547z" fill="#603e26"/><path id="Path" d="m38 31c-.3726239.0002391-.7144752-.2067216-.887-.537-.078-.137-.754-1.2-2.8-.514-.5246705.174522-1.091478-.1093295-1.266-.634-.1745219-.5246705.1093295-1.091478.634-1.266 3.024-1.007 4.731.542 5.211 1.5.1566046.3099187.1412266.6788919-.0406238.9747044-.1818503.2958126-.5041377.4761137-.8513762.4762956z" fill="#603e26"/><path id="Path" d="m44 42c0 7-6.72 10-15 10s-15-3-15-10c-.0675377-2.3800205.8902889-4.6744341 2.63-6.3 2.71-2.55 7.24-3.7 12.37-3.7s9.66 1.15 12.37 3.7c1.7397111 1.6255659 2.6975377 3.9199795 2.63 6.3z" fill="#f09372"/><path id="Path" d="m18 42c-.5522847 0-1-.4477153-1-1 .1009957-1.6601499 1.0718863-3.1432966 2.553-3.9.3192168-.1607695.6999548-.1390265.9987937.0570386s.4703779.5366653.45.8935c-.0203779.3568346-.2295769.6756919-.5487937.8364614-.8067931.417507-1.3519025 1.2102229-1.453 2.113 0 .5522847-.4477153 1-1 1z" fill="#f0785a"/><path id="Path" d="m40 42c-.5522847 0-1-.4477153-1-1-.103198-.9007409-.6479353-1.691041-1.453-2.108-.4934664-.2485281-.6920281-.8500336-.4435-1.3435.2485282-.4934664.8500336-.6920281 1.3435-.4435 1.4796408.7558097 2.4502839 2.2366772 2.553 3.895 0 .5522847-.4477153 1-1 1z" fill="#f0785a"/></g></g></svg>