<svg height="512" viewBox="0 0 58 58" width="512" xmlns="http://www.w3.org/2000/svg"><g id="Page-1" fill="none" fill-rule="evenodd"><g id="025---Bear" transform="translate(-3 -1)"><path id="Path" d="m51.95 10.02c-4.9627423-5.84377139-12.2844614-9.15414263-19.95-9.02-7.6655386-.13414263-14.9872577 3.17622861-19.95 9.02l3.41 2.17c4.2105418-4.68079294 10.2451229-7.30404794 16.54-7.19 6.2948771-.11404794 12.3294582 2.50920706 16.54 7.19z" fill="#95a5a5"/><path id="Path" d="m8.18 26.53c-.79861286 3.0928502-1.19521416 6.2757437-1.18 9.47 0 7-2 7-2 12s2 11 27 11 27-6 27-11-2-5-2-12c.0152142-3.1942563-.3813871-6.3771498-1.18-9.47l-8.17-11.41c-3.59-2.37-8.64-4.12-15.65-4.12s-12.06 1.75-15.65 4.12z" fill="#ecf0f1"/><path id="Path" d="m15 28c-.3677035-.0010448-.7051712-.2038019-.8787398-.5279637-.1735687-.3241619-.1552349-.7174286.0477398-1.0240363 1.5994518-2.1698435 4.1353622-3.4498638 6.831-3.448.5522847 0 1 .4477153 1 1s-.4477153 1-1 1c-2.0301433-.0074841-3.9455612.9404088-5.171 2.559-.1858453.2756654-.4965396.4409443-.829.441z" fill="#95a5a5"/><path id="Path" d="m49 28c-.3331683.0006101-.6447592-.1647468-.831-.441-1.224501-1.6186492-3.139377-2.5666406-5.169-2.559-.5522847 0-1-.4477153-1-1s.4477153-1 1-1c2.6954559-.0028843 5.2317028 1.2760049 6.832 3.445.2047322.3068587.2239019.7015085.049874 1.026765-.174028.3252566-.5129871.5282902-.881874.528235z" fill="#95a5a5"/><ellipse id="Oval" cx="32" cy="48" fill="#d1d4d1" rx="14" ry="11"/><path id="Path" d="m24 34c-.5522847 0-1-.4477153-1-1 0-1.1045695-.8954305-2-2-2s-2 .8954305-2 2c0 .5522847-.4477153 1-1 1s-1-.4477153-1-1c0-2.209139 1.790861-4 4-4s4 1.790861 4 4c0 .5522847-.4477153 1-1 1z" fill="#547580"/><path id="Path" d="m46 34c-.5522847 0-1-.4477153-1-1 0-1.1045695-.8954305-2-2-2s-2 .8954305-2 2c0 .5522847-.4477153 1-1 1s-1-.4477153-1-1c0-2.209139 1.790861-4 4-4s4 1.790861 4 4c0 .5522847-.4477153 1-1 1z" fill="#547580"/><ellipse id="Oval" cx="9.691" cy="18.274" fill="#3b97d3" rx="8.753" ry="6.047" transform="matrix(.453 -.892 .892 .453 -10.99 18.643)"/><ellipse id="Oval" cx="54.309" cy="18.272" fill="#3b97d3" rx="6.047" ry="8.753" transform="matrix(.892 -.453 .453 .892 -2.388 26.563)"/><path id="Path" d="m32 51c-.5522847 0-1-.4477153-1-1v-9c0-.5522847.4477153-1 1-1s1 .4477153 1 1v9c0 .5522847-.4477153 1-1 1z" fill="#547580"/><path id="Path" d="m29 48h6c.5522847 0 1 .4477153 1 1v1c0 2.209139-1.790861 4-4 4s-4-1.790861-4-4v-1c0-.5522847.4477153-1 1-1z" fill="#802f34"/><ellipse id="Oval" cx="32" cy="40" fill="#464f5d" rx="5" ry="3"/></g></g></svg>