<svg height="512" viewBox="0 0 48 58" width="512" xmlns="http://www.w3.org/2000/svg"><g id="Page-1" fill="none" fill-rule="evenodd"><g id="029---Bear"><path id="Path" d="m47.97 36.86c-.1301207-1.6696569-.518052-3.3090883-1.15-4.86-3.84-9.74-9.51-11.89-9.81-11.99l-.01-.01c.1260798-1.6009333-.6436055-3.1403038-2-4-.4280089-2.7660542-1.2216189-5.462983-2.36-8.02.12.01.24.02.36.02 2.0790682.0015505 3.8126989-1.58989676 3.9886353-3.66150809.1759364-2.07161132-1.2644862-3.93262245-3.3140395-4.28170475-2.0495532-.3490823-4.024828.93016327-4.5445958 2.94321284-2.90014-2.66677421-7.35986-2.66677421-10.26 0-.5197678-2.01304957-2.4950426-3.29229514-4.5445958-2.94321284-2.0495533.3490823-3.4899759 2.21009343-3.3140395 4.28170475.1759364 2.07161133 1.9095671 3.66305859 3.9886353 3.66150809.12 0 .24-.01.36-.02-1.1383811 2.557017-1.9319911 5.2539458-2.36 8.02-1.3563945.8596962-2.1260798 2.3990667-2 4l-.01.01-.01.01c-.38.12-5.99 2.32-9.8 11.98-.631948 1.5509117-1.01987929 3.1903431-1.15 4.86-.4 6.04 3.79 8.76 6.37 6.05.53805925 1.8446504 1.54394792 3.518835 2.92 4.86v.01c.54 3.82 1.87 10.22 4.68 10.22 3.08 0 3.79-3.08 3.95-5.69 3.9808723.9199842 8.1191277.9199842 12.1 0 .16 2.61.87 5.69 3.95 5.69 2.81 0 4.14-6.4 4.68-10.22v-.01c1.3760521-1.341165 2.3819407-3.0153496 2.92-4.86 2.58 2.71 6.77-.01 6.37-6.05z" fill="#805333"/><path id="Path" d="m35 16s-3 3-11 3-11-3-11-3c.4280089-2.7660542 1.2216189-5.462983 2.36-8.02.8080496-1.88765041 2.0039103-3.58434166 3.51-4.98 2.90014-2.66677421 7.35986-2.66677421 10.26 0 1.5060897 1.39565834 2.7019504 3.09234959 3.51 4.98 1.1383811 2.557017 1.9319911 5.2539458 2.36 8.02z" fill="#a56a43"/><path id="Path" d="m10.98 20.02c-.34.36-4.5 5.02-4.94 17.77-2.04631159.5229868-4.21746616.1870178-6.01-.93.13012071-1.6696569.518052-3.3090883 1.15-4.86 3.81-9.66 9.42-11.86 9.8-11.98z" fill="#14a085"/><path id="Path" d="m37 20s-4 3-13 3-13-3-13-3c-.1260798-1.6009333.6436055-3.1403038 2-4 0 0 3 3 11 3s11-3 11-3c1.3563945.8596962 2.1260798 2.3990667 2 4z" fill="#14a085"/><path id="Path" d="m42 40c-2.3100383-.750438-4.6993474-1.2303133-7.12-1.43-3.6125484-.4007788-7.2453495-.5911001-10.88-.57-3.6346505-.0211001-7.2674516.1692212-10.88.57-2.4206526.1996867-4.80996175.679562-7.12 1.43 0-.76.01-1.5.04-2.21.44-12.75 4.6-17.41 4.94-17.77l.01-.01.01-.01s4 3 13 3 13-3 13-3l.01.01c.28.3 4.51 4.93 4.95 17.78.03.71.04 1.45.04 2.21z" fill="#26b99a"/><path id="Path" d="m34.88 38.57c-.7751865 5.413016-5.4117593 9.4328983-10.88 9.4328983s-10.1048135-4.0198823-10.88-9.4328983c3.6125484-.4007788 7.2453495-.5911001 10.88-.57 3.6346505-.0211001 7.2674516.1692212 10.88.57z" fill="#cf976a"/><path id="Path" d="m42 40c.0016774.9838168-.1329352 1.9631238-.4 2.91-.5380593 1.8446504-1.5439479 3.518835-2.92 4.86v.01c-2.4068101 2.2728424-5.3923419 3.8399871-8.63 4.53-3.9808723.9199842-8.1191277.9199842-12.1 0-3.2376581-.6900129-6.2231899-2.2571576-8.63-4.53v-.01c-1.37605208-1.341165-2.38194075-3.0153496-2.92-4.86-.26706479-.9468762-.40167744-1.9261832-.4-2.91 2.31003825-.750438 4.6993474-1.2303133 7.12-1.43.7751865 5.413016 5.4117593 9.4328983 10.88 9.4328983s10.1048135-4.0198823 10.88-9.4328983c2.4206526.1996867 4.8099617.679562 7.12 1.43z" fill="#a56a43"/><path id="Path" d="m47.97 36.86c-1.7925338 1.1170178-3.9636884 1.4529868-6.01.93-.44-12.85-4.67-17.48-4.95-17.78.3.1 5.97 2.25 9.81 11.99.631948 1.5509117 1.0198793 3.1903431 1.15 4.86z" fill="#14a085"/><g fill="#fff"><path id="Path" d="m12 30h-1c-.5522847 0-1-.4477153-1-1s.4477153-1 1-1h1c.5522847 0 1 .4477153 1 1s-.4477153 1-1 1z"/><path id="Path" d="m17 30h-1c-.5522847 0-1-.4477153-1-1s.4477153-1 1-1h1c.5522847 0 1 .4477153 1 1s-.4477153 1-1 1z"/><path id="Path" d="m22 30h-1c-.5522847 0-1-.4477153-1-1s.4477153-1 1-1h1c.5522847 0 1 .4477153 1 1s-.4477153 1-1 1z"/><path id="Path" d="m27 30h-1c-.5522847 0-1-.4477153-1-1s.4477153-1 1-1h1c.5522847 0 1 .4477153 1 1s-.4477153 1-1 1z"/><path id="Path" d="m32 30h-1c-.5522847 0-1-.4477153-1-1s.4477153-1 1-1h1c.5522847 0 1 .4477153 1 1s-.4477153 1-1 1z"/><path id="Path" d="m37 30h-1c-.5522847 0-1-.4477153-1-1s.4477153-1 1-1h1c.5522847 0 1 .4477153 1 1s-.4477153 1-1 1z"/></g><circle id="Oval" cx="20" cy="10" fill="#603e26" r="1"/><circle id="Oval" cx="28" cy="10" fill="#603e26" r="1"/><path id="Path" d="m25 14h-2c-.5522847 0-1-.4477153-1-1s.4477153-1 1-1h2c.5522847 0 1 .4477153 1 1s-.4477153 1-1 1z" fill="#464f5d"/></g></g></svg>