<svg height="512" viewBox="0 0 58 54" width="512" xmlns="http://www.w3.org/2000/svg"><g id="Page-1" fill="none" fill-rule="evenodd"><g id="030---Hedgehog" fill-rule="nonzero"><path id="Shape" d="m6.571 12.225-.354-1.536c-.12022616-.5235006.19458013-1.04847213.713-1.189l2.331-.629c.43814561-.11845425.7415675-.51713175.739-.971v-2.261c-.00006364-.31168678.1452081-.60557969.3928769-.79481195.2476687-.18923225.569409-.25216168.8701231-.17018805l2.015.549c.4280435.11633876.8815717-.06319975 1.114-.441l1.113-1.807c.2778969-.4518466.8602579-.6080791 1.327-.356l2.485 1.342c.4016736.21751369.8996837.13519798 1.21-.2l1.873-2.029c.3431609-.3709464.9091353-.42758675 1.319-.132l1.562 1.13c.409378.29608882.9753021.24031161 1.319-.13l1.663-1.8c.1893156-.20521118.4558011-.32193289.735-.32193289s.5456844.11672171.735.32193289l1.667 1.8c.3434108.37209609.9107515.42878721 1.321.132l1.56-1.132c.4102485-.29678721.9775892-.24009609 1.321.132l1.871 2.027c.3103163.33519798.8083264.41751369 1.21.2l2.485-1.342c.4667421-.2520791 1.0491031-.0958466 1.327.356l1.113 1.807c.2324283.37780025.6859565.55733876 1.114.441l2.015-.549c.3010536-.08206699.62316-.01889931.8709191.17079436.2477592.18969366.3927689.48416748.3920809.79620564v2.261c-.0002988.45201191.3026552.84802496.739.966l2.331.629c.5188966.14053207.8338354.6661663.713 1.19l-.354 1.536c-.038806.1670761-.0339849.3413253.014.506l2.527 8.633v.01l2.43 1.97c.3572617.2886851.4719225.7836239.278 1.2l-1.4 3.029c-.1704319.3680255-.1016989.8025442.174 1.1l1.921 2.081c.3532508.3829811.3532508.9730189 0 1.356l-1.921 2.081c-.2753606.2976759-.343695.7321717-.173 1.1l1.461 3.162c.1588555.3439597.109686.7481569-.127 1.044l-3.313 4.132c-.1898615.2371369-.4772217.375114-.781.375h-47.038c-.30377833.000114-.59113855-.1378631-.781-.375l-3.314-4.142c-.23668596-.2958431-.28585554-.7000403-.127-1.044l1.461-3.162c.170695-.3678283.10236065-.8023241-.173-1.1l-1.921-2.077c-.3532508-.3829811-.3532508-.9730189 0-1.356l1.921-2.081c.27569891-.2974558.34443187-.7319745.174-1.1l-1.4-3.029c-.19392251-.4163761-.07926169-.9113149.278-1.2l2.431-1.964v-.01l2.527-8.629c.04798489-.1646747.05280602-.3389239.014-.506z" fill="#805333"/><path id="Shape" d="m9.56 23.97c-.18597761.0202331-.37292518.0302482-.56.03-3.01757983.0010807-5.5664724-2.2391365-5.9527792-5.2318872-.3863068-2.9927506 1.51017917-5.806781 4.42912439-6.5719921 2.91894521-.7652111 5.95206211.7565078 7.08365481 3.5538793z" fill="#a56a43"/><path id="Shape" d="m48.44 23.97c.1859776.0202331.3729252.0302482.56.03 3.0175798.0010807 5.5664724-2.2391365 5.9527792-5.2318872.3863068-2.9927506-1.5101792-5.806781-4.4291244-6.5719921s-5.9520621.7565078-7.0836548 3.5538793z" fill="#a56a43"/><path id="Shape" d="m50.7 43.95c.0015564.0172822-.0019163.0346458-.01.05h-43.38c-.00808367-.0153542-.0115564-.0327178-.01-.05-1.14-8.19 0-33.95 21.7-33.95s22.84 25.76 21.7 33.95z" fill="#cf976a"/><circle id="Oval" cx="18.5" cy="27.5" fill="#fff" r="3.5"/><circle id="Oval" cx="39.5" cy="27.5" fill="#fff" r="3.5"/><path id="Shape" d="m34.707 37.293c-.3904999-.3903819-1.0235001-.3903819-1.414 0-.5015686.6267547-1.2508393 1.0044922-2.053 1.035-.4820966-.0715899-.922287-.3144046-1.24-.684v-4.644c0-.5522847-.4477153-1-1-1s-1 .4477153-1 1v4.644c-.3178276.3694543-.7579615.6122379-1.24.684-.8030842-.0269113-1.5537736-.405364-2.053-1.035-.3923789-.3789722-1.0160848-.3735524-1.4018186.0121814s-.3911536 1.0094397-.0121814 1.4018186c.9104818 1.0766526 2.2683357 1.6708291 3.677 1.609.7477672-.0823409 1.454269-.3847794 2.03-.869.575731.4842206 1.2822328.7866591 2.03.869.1156153.0119549.2317683.0179628.348.018 1.2837511-.0708991 2.4843433-.657671 3.329-1.627.3903819-.3904999.3903819-1.0235001 0-1.414z" fill="#805333"/><rect id="Rectangle-path" fill="#3b97d3" height="10" rx="2" width="54" x="2" y="44"/><g fill="#2980ba"><path id="Rectangle-path" d="m20 44h6v10h-6z"/><path id="Rectangle-path" d="m8 44h6v10h-6z"/><path id="Rectangle-path" d="m32 44h6v10h-6z"/><path id="Rectangle-path" d="m44 44h6v10h-6z"/></g><circle id="Oval" cx="18.5" cy="27.5" fill="#464f5d" r="1.5"/><circle id="Oval" cx="18" cy="26" fill="#fff" r="1"/><circle id="Oval" cx="39.5" cy="27.5" fill="#464f5d" r="1.5"/><circle id="Oval" cx="39" cy="26" fill="#fff" r="1"/><path id="Shape" d="m32 31c-.1867343 1.5730365-1.4269635 2.8132657-3 3-1.5730365-.1867343-2.8132657-1.4269635-3-3 0-1.1 1.343-1 3-1s3-.1 3 1z" fill="#3f5c6c"/></g></g></svg>