<svg height="512" viewBox="0 0 50 58" width="512" xmlns="http://www.w3.org/2000/svg"><g id="Page-1" fill="none" fill-rule="evenodd"><g id="001---Deer"><path id="Path" d="m6.65 27.9c-6.65-1.06-6.65-9.99-6.65-12.78 0-2.97 3-2.97 7 .99 1.46640499 1.3808957 3.2028568 2.4431956 5.1 3.12.54.21 1.04.37 1.47.49z" fill="#805333"/><path id="Path" d="m36.43 19.72c.43-.12.93-.28 1.47-.49 1.8971432-.6768044 3.633595-1.7391043 5.1-3.12 4-3.96 7-3.96 7-.99 0 2.79 0 11.72-6.65 12.78z" fill="#805333"/><path id="Path" d="m37.33 47.15c1.1427878.9405684 1.7640915 2.3729151 1.67 3.85v4c-.0931546 1.6065705-1.3918756 2.8793171-3 2.94-.2948152.0415942-.5922697.0616473-.89.06h-20.22c-.2977303.0016473-.5951848-.0184058-.89-.06-1.6081244-.0606829-2.9068454-1.3334295-3-2.94v-4c-.0940915-1.4770849.5272122-2.9094316 1.67-3.85z" fill="#e64c3c"/><path id="Path" d="m45 35c0 5.43-3 9.6-7.67 12.15-3.8101548 1.9575427-8.0472793 2.9369267-12.33 2.85-4.2827207.0869267-8.5198452-.8924573-12.33-2.85-4.67-2.55-7.67-6.72-7.67-12.15.0250549-2.4587458.58824668-4.8821771 1.65-7.1 1.55402505-3.2833649 3.939596-6.1033028 6.92-8.18.897439-.6451228 1.8474399-1.2137854 2.84-1.7 5.4099744-2.6933928 11.7700256-2.6933928 17.18 0 .9925601.4862146 1.942561 1.0548772 2.84 1.7 2.980404 2.0766972 5.3659749 4.8966351 6.92 8.18 1.0617533 2.2178229 1.6249451 4.6412542 1.65 7.1z" fill="#cf976a"/><path id="Path" d="m13.41 13.91c.751016 1.5354631 1.7665185 2.9267015 3 4.11-.9925601.4862146-1.942561 1.0548772-2.84 1.7-.43-.12-.93-.28-1.47-.49-1.9892794-2.513656-3.39638972-5.4371668-4.12-8.56-2.83173856-.5562552-5.29326997-2.29059856-6.77-4.77-.50257912-.98582828-.11082828-2.19242088.875-2.695s2.19242088-.11082828 2.695.875c.59145483.91889419 1.43508973 1.64796139 2.43 2.1-.13-1.3-.21-2.69-.21-4.18 0-1.1045695.8954305-2 2-2s2 .8954305 2 2c-.0318882 2.72418937.2942353 5.44076401.97 8.08 1.0527212-.87504957 1.7786902-2.08029909 2.06-3.42.2234399-1.04877947 1.2342468-1.73472064 2.2913879-1.55495299 1.0571412.17976765 1.7843984 1.16126797 1.6486121 2.22495299-.5273694 2.7368598-2.182553 5.1252608-4.56 6.58z" fill="#fdd7ad"/><path id="Path" d="m48.79 5.9c-1.47673 2.47940144-3.9382614 4.2137448-6.77 4.77-.7236103 3.1228332-2.1307206 6.046344-4.12 8.56-.54.21-1.04.37-1.47.49-.897439-.6451228-1.8474399-1.2137854-2.84-1.7 1.2334815-1.1832985 2.248984-2.5745369 3-4.11-2.377447-1.4547392-4.0326306-3.8431402-4.56-6.58-.1357863-1.06368502.5914709-2.04518534 1.6486121-2.22495299 1.0571411-.17976765 2.067948.50617352 2.2913879 1.55495299.2842539 1.3385416 1.0096801 2.54288997 2.06 3.42.6757647-2.63923599 1.0018882-5.35581063.97-8.08 0-1.1045695.8954305-2 2-2s2 .8954305 2 2c0 1.49-.08 2.88-.21 4.18.9951964-.45573648 1.8411181-1.18378384 2.44-2.1.5195728-.9642837 1.71403-1.33727406 2.69-.84.969813.49854406 1.3577748 1.68472609.87 2.66z" fill="#fdd7ad"/><path id="Path" d="m30.707 43.293c-.3904999-.3903819-1.0235001-.3903819-1.414 0-.9479678.7640721-2.2831893.8212437-3.293.141v-3.434h-2v3.434c-1.0084072.6851987-2.3468541.627889-3.293-.141-.3923789-.3789722-1.0160848-.3735524-1.4018186.0121814s-.3911536 1.0094397-.0121814 1.4018186c1.5901175 1.4010528 3.9126182 1.5886597 5.707.461.8037265.4583541 1.7108308.7047451 2.636.716 1.136226.0132009 2.2346458-.4077826 3.071-1.177.3903819-.3904999.3903819-1.0235001 0-1.414z" fill="#a56a43"/><circle id="Oval" cx="37" cy="35" fill="#fff" r="3"/><circle id="Oval" cx="36.5" cy="35.5" fill="#464f5d" r="1.5"/><circle id="Oval" cx="13" cy="35" fill="#fff" r="3"/><ellipse id="Oval" cx="25" cy="39" fill="#464f5d" rx="3" ry="2"/><g fill="#802f34"><path id="Path" d="m26 54v4h-2v-4c0-.5522847.4477153-1 1-1s1 .4477153 1 1z"/><path id="Path" d="m31 54v4h-2v-4c0-.5522847.4477153-1 1-1s1 .4477153 1 1z"/><path id="Path" d="m36 54v3.94c-.2948152.0415942-.5922697.0616473-.89.06h-1.11v-4c0-.5522847.4477153-1 1-1s1 .4477153 1 1z"/><path id="Path" d="m16 54v4h-1.11c-.2977303.0016473-.5951848-.0184058-.89-.06v-3.94c0-.5522847.4477153-1 1-1s1 .4477153 1 1z"/><path id="Path" d="m21 54v4h-2v-4c0-.5522847.4477153-1 1-1s1 .4477153 1 1z"/></g><path id="Path" d="m40.97 24.03c-3.51.25-10.77 1.37-13.07 9.29-1.9097908-.4266872-3.8902092-.4266872-5.8 0-2.3-7.92-9.56-9.04-13.07-9.29 1.288499-1.6563304 2.8189779-3.109274 4.54-4.31.897439-.6451228 1.8474399-1.2137854 2.84-1.7 5.4099744-2.6933928 11.7700256-2.6933928 17.18 0 .9925601.4862146 1.942561 1.0548772 2.84 1.7 1.7210221 1.200726 3.251501 2.6536696 4.54 4.31z" fill="#a56a43"/><path id="Path" d="m30 35c-.1534127.0013715-.3050529-.0328588-.443-.1-2.9198548-1.1946906-6.1921452-1.1946906-9.112 0-.494571.2460429-1.0949571.044571-1.341-.45s-.044571-1.0949571.45-1.341c1.7153834-.7540967 3.5723239-1.1322361 5.446-1.109 1.8733578-.0262139 3.7306269.3488542 5.447 1.1.4214702.2040519.6449027.6732513.5376645 1.129074-.1072383.4558226-.5164267.7761896-.9846645.770926z" fill="#805333"/><circle id="Oval" cx="13.5" cy="35.5" fill="#464f5d" r="1.5"/><circle id="Oval" cx="13" cy="34" fill="#fff" r="1"/><circle id="Oval" cx="36" cy="34" fill="#fff" r="1"/><path id="Path" d="m25 21c-.5522847 0-1-.4477153-1-1v-1c0-.5522847.4477153-1 1-1s1 .4477153 1 1v1c0 .5522847-.4477153 1-1 1z" fill="#cf976a"/><path id="Path" d="m29 23c-.5522847 0-1-.4477153-1-1v-1c0-.5522847.4477153-1 1-1s1 .4477153 1 1v1c0 .5522847-.4477153 1-1 1z" fill="#cf976a"/><path id="Path" d="m21 23c-.5522847 0-1-.4477153-1-1v-1c0-.5522847.4477153-1 1-1s1 .4477153 1 1v1c0 .5522847-.4477153 1-1 1z" fill="#cf976a"/><path id="Path" d="m25 26c-.5522847 0-1-.4477153-1-1v-1c0-.5522847.4477153-1 1-1s1 .4477153 1 1v1c0 .5522847-.4477153 1-1 1z" fill="#cf976a"/></g></g></svg>