<svg height="512" viewBox="0 0 54 58" width="512" xmlns="http://www.w3.org/2000/svg"><g id="Page-1" fill="none" fill-rule="evenodd"><g id="002---Bear" transform="translate(-1 -1)"><path id="Path" d="m51.236 15.2c2.5027228-1.2984536 3.9821337-3.9716797 3.7532103-6.781875-.2289235-2.81019526-2.1214894-5.2087342-4.8013691-6.08500379-2.6798796-.8762696-5.6238887-.05919854-7.4688412 2.07287879-.3274169.36950453-.876566.4423552-1.289.171-4.0386221-2.46116169-8.702227-3.70328489-13.43-3.577-4.727773-.12628489-9.3913779 1.11583831-13.43 3.577-.412434.2713552-.9615831.19850453-1.289-.171-1.8449525-2.13207733-4.78896157-2.94914839-7.46884123-2.07287879-2.67987965.87626959-4.57244553 3.27480853-4.80136903 6.08500379-.22892349 2.8101953 1.25048741 5.4834214 3.75321026 6.781875.44644027.2382396.64070762.7752809.45 1.244-1.42613055 3.6877443-2.17611243 7.6022839-2.214 11.556 0 7-2 7-2 12s5 9 8 9l19 2 19-2c3 0 8-4 8-9s-2-5-2-12c-.0377676-3.9540527-.7877515-7.8689416-2.214-11.557-.1901047-.4684417.004078-1.0048174.45-1.243z" fill="#ecf0f1"/><path id="Path" d="m10 49v10h-1c-1.65685425 0-3-1.3431458-3-3v-4c0-1.6568542 1.34314575-3 3-3z" fill="#2980ba"/><path id="Path" d="m50 52v4c0 1.6568542-1.3431458 3-3 3h-1v-10h1c1.6568542 0 3 1.3431458 3 3z" fill="#2980ba"/><path id="Rectangle" d="m10 49h36v10h-36z" fill="#3b97d3"/><path id="Path" d="m38.43 49c2.2432635-2.0595599 3.5352958-4.9548704 3.57-8 0-6.63-6.27-12-14-12s-14 5.37-14 12c.0347042 3.0451296 1.3267365 5.9404401 3.57 8z" fill="#d1d4d1"/><path id="Path" d="m33.644 40.24c-.4203485-.3560083-1.0494483-.3050365-1.407.114-.8703069.8751375-2.0112195 1.4299094-3.237 1.574v-9.928c0-.5522847-.4477153-1-1-1s-1 .4477153-1 1v9.928c-1.2231757-.1437686-2.3619959-.6962655-3.232-1.568-.3574883-.4086317-.9757262-.4573621-1.39282-.109784-.4170937.3475782-.4806478.9644685-.14318 1.389784 1.5028872 1.5662574 3.598256 2.4235859 5.768 2.36 2.169744.0635859 4.2651128-.7937426 5.768-2.36.3488734-.4219296.2936023-1.0459583-.124-1.4z" fill="#547580"/><path id="Path" d="m14 25.653c-.4304304 0-.8125693-.2754301-.9486833-.6837722-.136114-.4083422.004339-.8579696.3486833-1.1162278 2.584935-2.0000027 6.0581156-2.4222972 9.047-1.1.4901762.2481223.6883867.8452206.4438982 1.3372194s-.8401039.6946219-1.3338982.4537806c-2.3101583-.987154-4.9740971-.6425306-6.957.9-.1719619.1330395-.3825978.206411-.6.209z" fill="#547580"/><path id="Path" d="m11 19c-.3677035-.0010448-.7051712-.2038019-.8787398-.5279637-.17356867-.3241619-.15523485-.7174286.0477398-1.0240363 1.5994518-2.1698435 4.1353622-3.4498638 6.831-3.448.5522847 0 1 .4477153 1 1s-.4477153 1-1 1c-2.0301433-.0074841-3.9455612.9404088-5.171 2.559-.1858453.2756654-.4965396.4409443-.829.441z" fill="#95a5a5"/><path id="Path" d="m42 25.653c-.2163702 0-.4269038-.0701779-.6-.2-1.9832443-1.5417112-4.64672-1.8862747-6.957-.9-.4937943.2408413-1.0894097.0382182-1.3338982-.4537806s-.046278-1.0890971.4438982-1.3372194c2.9888844-1.3222972 6.462065-.9000027 9.047 1.1.3443443.2582582.4847973.7078856.3486833 1.1162278-.136114.4083421-.5182529.6837722-.9486833.6837722z" fill="#547580"/><path id="Path" d="m45 19c-.3331683.0006101-.6447592-.1647468-.831-.441-1.224501-1.6186492-3.139377-2.5666406-5.169-2.559-.5522847 0-1-.4477153-1-1s.4477153-1 1-1c2.6954559-.0028843 5.2317028 1.2760049 6.832 3.445.2047322.3068587.2239019.7015085.049874 1.026765-.174028.3252566-.5129871.5282902-.881874.528235z" fill="#95a5a5"/><path id="Path" d="m10.7 7.7c-1.24859176 1.28725653-2.34573279 2.7132044-3.27 4.25-1.38636775-.2675101-2.39856243-1.4655347-2.43082848-2.87710696-.03226605-1.41157221.92413057-2.65459535 2.2968271-2.98517283 1.37269652-.33057748 2.79011948.3407743 3.40400138 1.61227979z" fill="#fb7b76"/><path id="Path" d="m51 9c-.0001427 1.437976-1.01867 2.6744597-2.43 2.95-.9242672-1.5367956-2.0214082-2.96274347-3.27-4.25.6089218-1.25729008 2.0050809-1.92787793 3.3670908-1.61724411 1.3620098.31063381 2.3293471 1.52026472 2.3329092 2.91724411z" fill="#fb7b76"/><g fill="#2980ba"><path id="Rectangle" d="m26 49h4v10h-4z"/><path id="Rectangle" d="m16 49h4v10h-4z"/><path id="Rectangle" d="m36 49h4v10h-4z"/></g><ellipse id="Oval" cx="28" cy="32" fill="#464f5d" rx="5" ry="3"/></g></g></svg>