<svg height="512" viewBox="0 0 48 58" width="512" xmlns="http://www.w3.org/2000/svg"><g id="Page-1" fill="none" fill-rule="evenodd"><g id="003---Penguin" transform="translate(-1)"><path id="Path" d="m32.72 7.6c1.952512 4.6277726 3.387882 9.4570548 4.28 14.4l-12 2-12-2s.84-11.82 14.17-16.84z" fill="#e64c3c"/><path id="Path" d="m35 4c.0032244 1.54083769-.8856361 2.94430154-2.28 3.6-.5345982.26479526-1.1234191.40173033-1.72.4-1.7623882-.00112427-3.3170335-1.15391612-3.83-2.84-.1123663-.3764329-.1696272-.76715427-.17-1.16 0-2.209139 1.790861-4 4-4s4 1.790861 4 4z" fill="#ecf0f1"/><path id="Path" d="m49 50c.0004033 2.1422138-.2106194 4.2792382-.63 6.38-.1867986.9404067-1.0112217 1.6183587-1.97 1.62h-42.8c-.95877828-.0016413-1.78320139-.6795933-1.97-1.62-.41938057-2.1007618-.63040334-4.2377862-.63-6.38-.08643319-7.3178785 2.4740894-14.4205764 7.21-20l16.79-2 16.79 2c4.7359106 5.5794236 7.2964332 12.6821215 7.21 20z" fill="#464f5d"/><path id="Path" d="m43 43c0 .16 0 .33-.01.49-.06 9.67-1.99 14.51-1.99 14.51h-32s-1.93-4.84-1.99-14.51c-.01-.16-.01-.33-.01-.49.0017608-4.4047717 3.0295874-8.2312525 7.3159528-9.2456923s8.7081329 1.0489704 10.6840472 4.9856923c1.9759143-3.9367219 6.3976818-6.0001321 10.6840472-4.9856923s7.314192 4.8409206 7.3159528 9.2456923z" fill="#ecf0f1"/><path id="Path" d="m25.612 50.613c.893445-.7676068 1.5988734-1.7299589 2.062-2.813.1121411-.241015.1237055-.5167617.0321383-.7663199-.0915673-.2495582-.2787298-.4523885-.5201383-.5636801-1.3902529-.6253272-2.9817471-.6253272-4.372 0-.2414085.1112916-.428571.3141219-.5201383.5636801-.0915672.2495582-.0800028.5253049.0321383.7663199.4629947 1.0834016 1.1684317 2.0461075 2.062 2.814.3615262.2757724.8629249.2753627 1.224-.001z" fill="#f29c1f"/><path id="Path" d="m43 26v3c0 .5522847-.4477153 1-1 1h-34c-.55228475 0-1-.4477153-1-1v-3c0-2.209139 1.790861-4 4-4h28c2.209139 0 4 1.790861 4 4z" fill="#ecf0f1"/><g fill="#bdc3c7"><path id="Path" d="m26 26v4h-2v-4c0-.5522847.4477153-1 1-1s1 .4477153 1 1z"/><path id="Path" d="m30 26v4h-2v-4c0-.5522847.4477153-1 1-1s1 .4477153 1 1z"/><path id="Path" d="m34 26v4h-2v-4c0-.5522847.4477153-1 1-1s1 .4477153 1 1z"/><path id="Path" d="m38 26v4h-2v-4c0-.5522847.4477153-1 1-1s1 .4477153 1 1z"/><path id="Path" d="m22 26v4h-2v-4c0-.5522847.4477153-1 1-1s1 .4477153 1 1z"/><path id="Path" d="m18 26v4h-2v-4c0-.5522847.4477153-1 1-1s1 .4477153 1 1z"/><path id="Path" d="m14 26v4h-2v-4c0-.5522847.4477153-1 1-1s1 .4477153 1 1z"/></g><circle id="Oval" cx="15" cy="42" fill="#fff" r="3"/><circle id="Oval" cx="15.5" cy="42.5" fill="#464f5d" r="1.5"/><circle id="Oval" cx="15" cy="41" fill="#fff" r="1"/><circle id="Oval" cx="35" cy="42" fill="#fff" r="3"/><circle id="Oval" cx="34.5" cy="42.5" fill="#464f5d" r="1.5"/><circle id="Oval" cx="34" cy="41" fill="#fff" r="1"/></g></g></svg>