<svg height="512" viewBox="0 0 58 58" width="512" xmlns="http://www.w3.org/2000/svg"><g id="Page-1" fill="none" fill-rule="evenodd"><g id="004---Fox"><g fill="#e57e25"><path id="Path" d="m7.34 17.31c.26153576-1.1469181.61604081-2.2706322 1.06-3.36-3.41-3.42-3.49-10.24-3.38-12.88.01458236-.27681806.14341462-.53516359.35574412-.71336871.21232951-.17820512.48910375-.26027934.76425588-.22663129 5.7.8 8.78 2.66 10.31 4.03.2904341.26584165.7114741.33273586 1.07.17 3.6344563-1.52973493 7.5367408-2.32174912 11.48-2.33 3.9434446-.08269918 7.8565315.70606442 11.46 2.31.3569711.17450114.7840955.11517832 1.08-.15 1.54-1.37 4.61-3.23 10.32-4.03.2751521-.03364805.5519264.04842617.7642559.22663129s.3411617.43655065.3557441.71336871c.11 2.63.03 9.46-3.38 12.88.4439592 1.0893678.7984642 2.2130819 1.06 3.36l-18.17 13.36h-6.98z"/><path id="Path" d="m29 58h-14.25c-1.0571473-.0086356-1.9269199-.834701-1.99-1.89-.3976595-4.696662 1.4534354-9.3039965 4.99-12.42h.01z"/><path id="Path" d="m40.24 43.69h.01c3.5365646 3.1160035 5.3876595 7.723338 4.99 12.42-.0630801 1.055299-.9328527 1.8813644-1.99 1.89h-14.25z"/></g><path id="Path" d="m37.82 39.77c1.0633165 1.1296765 1.8865649 2.4632029 2.42 3.92.5107793 1.3791865.7682457 2.8392917.76 4.31-.8405796-.6952889-1.9103629-1.0518834-3-1 0 0 1 6-3 8-.0729159-.7678568-.4294641-1.4809533-1-2-.9858721 2.2311563-2.7688437 4.0141279-5 5-2.2311563-.9858721-4.0141279-2.7688437-5-5-.5705359.5190467-.9270841 1.2321432-1 2-4-2-3-8-3-8-1.0896371-.0518834-2.1594204.3047111-3 1-.0082457-1.4707083.2492207-2.9308135.76-4.31v-.01c.5369386-1.4521192 1.3598548-2.7817069 2.42-3.91z" fill="#ecf0f1"/><path id="Path" d="m39.58 33.81c.3753564 1.3047635.4975541 2.6693042.36 4.02-.0788877.7398305-.5654715 1.3731619-1.26 1.64-.24.09-.53.19-.86.3-2.1915236.6736504-4.4596011 1.0667839-6.75 1.17-.6466667.04-1.3366667.06-2.07.06-1.16 0-2.22-.05-3.19-.14-1.9105515-.1587452-3.7982537-.5242151-5.63-1.09-.33-.11-.62-.21-.86-.3-.6945285-.2668381-1.1811123-.9001695-1.26-1.64-.1375541-1.3506958-.0153564-2.7152365.36-4.02z" fill="#e64c3c"/><path id="Path" d="m31.6 50h-3.9c-.4226411.0049699-.8011457-.2607886-.94-.66-.8530825-2.740527-1.1755126-5.6186398-.95-8.48.97.09 2.03.14 3.19.14.73 0 1.42-.02 2.07-.06.1900021 2.6386751.6866816 5.2462423 1.48 7.77.0914629.301808.0351991.6290768-.1518065.8830107s-.4828388.4047757-.7981935.4069893z" fill="#c03a2b"/><path id="Path" d="m29 35c-3.5616044.0286082-7.1137402-.3709232-10.58-1.19-12.17-3.02-16.56-10.94-17.9-14.29-.12947035-.3097747-.09294176-.6640785.09700862-.9409211.18995037-.2768426.50737875-.4384122.84299138-.4290789 1.99162191.0253914 3.97515255-.2579702 5.88-.84 1.24751625-.3555938 2.47017846-.7932133 3.66-1.31 7-3 12 0 13 6 .59 3.52.97 6.49 1.51 8.67.2043249 1.2189738.7172712 2.365357 1.49 3.33.5190467.5705359 1.2321432.9270841 2 1z" fill="#ecf0f1"/><path id="Path" d="m57.48 19.52c-1.34 3.35-5.73 11.27-17.9 14.29-3.4660536.820263-7.0183332 1.2198105-10.58 1.19.7678568-.0729159 1.4809533-.4294641 2-1 .7727288-.964643 1.2856751-2.1110262 1.49-3.33.54-2.18.92-5.15 1.51-8.67 1-6 6-9 13-6 1.1898215.5167867 2.4124837.9544062 3.66 1.31 1.9048474.5820298 3.8883781.8653914 5.88.84.3356126-.0093333.653041.1522363.8429914.4290789s.2264789.6311464.0970086.9409211z" fill="#ecf0f1"/><path id="Path" d="m32.49 30.67c-.2043249 1.2189738-.7172712 2.365357-1.49 3.33-.5190467.5705359-1.2321432.9270841-2 1-.7678568-.0729159-1.4809533-.4294641-2-1-.7727288-.964643-1.2856751-2.1110262-1.49-3.33 1.0940374-.4960021 2.2900654-.725612 3.49-.67 1.1999346-.055612 2.3959626.1739979 3.49.67z" fill="#464f5d"/><path id="Path" d="m13.48 6.88c-1.1324647.95005295-2.1374486 2.04242683-2.99 3.25-.80294706-1.66324097-1.27503034-3.46666702-1.39-5.31 1.5745702.41061134 3.0595686 1.10903526 4.38 2.06z" fill="#35495e"/><path id="Path" d="m44.52 6.88c1.1324647.95005295 2.1374486 2.04242683 2.99 3.25.8029471-1.66324097 1.2750303-3.46666702 1.39-5.31-1.5745702.41061134-3.0595686 1.10903526-4.38 2.06z" fill="#35495e"/><circle id="Oval" cx="18" cy="26" fill="#fff" r="3"/><circle id="Oval" cx="18.5" cy="26.5" fill="#464f5d" r="1.5"/><circle id="Oval" cx="18" cy="25" fill="#fff" r="1"/><circle id="Oval" cx="40" cy="26" fill="#fff" r="3"/><circle id="Oval" cx="39.5" cy="26.5" fill="#464f5d" r="1.5"/><circle id="Oval" cx="39" cy="25" fill="#fff" r="1"/></g></g></svg>