<svg height="512" viewBox="0 0 58 58" width="512" xmlns="http://www.w3.org/2000/svg"><g id="Page-1" fill="none" fill-rule="evenodd"><g id="005---Owl"><path id="Path" d="m8.64 16.93c-8.64-.77-8.64-8.93-8.64-8.93h3c-2-3-1-8-1-8 3.2 6.39 10.07 8.29 14.61 8.83z" fill="#805333"/><path id="Path" d="m41.39 8.83c4.54-.54 11.41-2.44 14.61-8.83 0 0 1 5-1 8h3s0 8.16-8.64 8.93z" fill="#805333"/><path id="Path" d="m35 51.23v5.77c0 .5522847-.4477153 1-1 1h-10c-.5522847 0-1-.4477153-1-1v-5.77z" fill="#802f34"/><path id="Path" d="m53 38c-1.1274568.5551538-2.2899245 1.0361749-3.48 1.44.33-6.32-2.57-11.38-2.53-14.93v-.06c.1729052-3.7206742-1.7380258-7.2286774-4.9577706-9.1012575-3.2197449-1.87258-7.2137791-1.7988614-10.3622294.1912575-1.6281039 1.0399522-3.7118961 1.0399522-5.34 0-3.1484503-1.9901189-7.1424845-2.0638375-10.3622294-.1912575-3.2197448 1.8725801-5.1306758 5.3805833-4.9577706 9.1012575v.06c.04 3.55-2.86 8.61-2.53 14.93-1.19007552-.4038251-2.35254324-.8848462-3.48-1.44 0 0-1.48-11.8 3.64-21.07 1.8201683-3.4119339 4.5879596-6.2248711 7.97-8.1 3.8220532-1.98185318 8.0865151-2.95589894 12.39-2.83 4.3034849-.12589894 8.5679468.84814682 12.39 2.83 3.3820404 1.8751289 6.1498317 4.6880661 7.97 8.1 5.12 9.27 3.64 21.07 3.64 21.07z" fill="#a56a43"/><path id="Path" d="m49.52 39.44c-4.4416697 1.4403065-9.0557764 2.2810693-13.72 2.5-.4324087-1.1712103-1.5515341-1.9466043-2.8-1.94h-8c-1.2484659-.0066043-2.3675913.7687897-2.8 1.94-4.6642236-.2189307-9.2783303-1.0596935-13.72-2.5-.33-6.32 2.57-11.38 2.53-14.93v-.06c-.1729052-3.7206742 1.7380258-7.2286774 4.9577706-9.1012575 3.2197449-1.87258 7.2137791-1.7988614 10.3622294.1912575 1.6281039 1.0399522 3.7118961 1.0399522 5.34 0 3.1484503-1.9901189 7.1424845-2.0638375 10.3622294-.1912575 3.2197448 1.8725801 5.1306758 5.3805833 4.9577706 9.1012575v.06c-.04 3.55 2.86 8.61 2.53 14.93z" fill="#fdd7ad"/><path id="Path" d="m36 43v6c-.0025069.7289486-.2689365 1.4323229-.75 1.98-.565981.6510243-1.3873554 1.0233807-2.25 1.02h-8c-.8626446.0033807-1.684019-.3689757-2.25-1.02-.4810635-.5476771-.7474931-1.2510514-.75-1.98v-6c-.0002124-.3627319.0676276-.7222841.2-1.06.4324087-1.1712103 1.5515341-1.9466043 2.8-1.94h8c1.2484659-.0066043 2.3675913.7687897 2.8 1.94.1323724.3377159.2002124.6972681.2 1.06z" fill="#e64c3c"/><path id="Path" d="m22.75 50.98c-1.73-.04-3.31-.12-4.75-.24-.7-.05-1.36-.11-2-.18-.7-.08-1.37-.17-2-.26-.71-.1-1.38-.22-2-.33-.73-.14-1.39-.29-2-.44-.75-.19-1.41-.38-2-.58-1.45475683-.3638679-2.81728392-1.0280998-4-1.95-2-6 1-9 1-9 .97405876.4821706 1.97581157.906246 3 1.27.16.06.32.11.48.17.5.18 1.01.34 1.52.49.67.2 1.34.38 2 .54.68.17 1.34.32 2 .45.68.14 1.35.25 2 .36.69.11 1.36.2 2 .29 1.69.2 3.15.31 4.2.37-.1323724.3377159-.2002124.6972681-.2 1.06v6c.0025069.7289486.2689365 1.4323229.75 1.98z" fill="#c03a2b"/><path id="Path" d="m54 47c-1.1827161.9219002-2.5452432 1.5861321-4 1.95-.59.2-1.25.39-2 .58-.61.15-1.27.3-2 .44-.62.11-1.29.23-2 .33-.63.09-1.3.18-2 .26-.64.07-1.3.13-2 .18-1.44.12-3.02.2-4.75.24.4810635-.5476771.7474931-1.2510514.75-1.98v-6c.0002124-.3627319-.0676276-.7222841-.2-1.06 1.05-.06 2.51-.17 4.2-.37.64-.09 1.31-.18 2-.29.65-.11 1.32-.22 2-.36.66-.13 1.32-.28 2-.45.66-.16 1.33-.34 2-.54.51-.15 1.02-.31 1.52-.49.16-.06.32-.11.48-.17 1.0241884-.363754 2.0259412-.7878294 3-1.27 0 0 3 3 1 9z" fill="#c03a2b"/><path id="Path" d="m29 36c5-2 5-6 5-6s-1-2-5-2-5 2-5 2 0 4 5 6z" fill="#f29c1f"/><circle id="Oval" cx="20" cy="23" fill="#f0c419" r="4"/><circle id="Oval" cx="20" cy="23" fill="#464f5d" r="2"/><circle id="Oval" cx="18.5" cy="21.5" fill="#fff" r="1.5"/><circle id="Oval" cx="38" cy="23" fill="#f0c419" r="4"/><g fill="#802f34"><path id="Path" d="m42 41.28v9.28c-.64.07-1.3.13-2 .18v-9.17c.64-.09 1.31-.18 2-.29z"/><path id="Path" d="m46 40.47v9.5c-.62.11-1.29.23-2 .33v-9.38c.66-.13 1.32-.28 2-.45z"/><path id="Path" d="m50 39.27v9.68c-.59.2-1.25.39-2 .58v-9.6c.51-.15 1.02-.31 1.52-.49.16-.06.32-.11.48-.17z"/><path id="Path" d="m18 41.57v9.17c-.7-.05-1.36-.11-2-.18v-9.28c.69.11 1.36.2 2 .29z"/><path id="Path" d="m14 40.92v9.38c-.71-.1-1.38-.22-2-.33v-9.5c.68.17 1.34.32 2 .45z"/><path id="Path" d="m10 39.93v9.6c-.75-.19-1.41-.38-2-.58v-9.68c.16.06.32.11.48.17.5.18 1.01.34 1.52.49z"/></g><circle id="Oval" cx="38" cy="23" fill="#464f5d" r="2"/><circle id="Oval" cx="36.5" cy="21.5" fill="#fff" r="1.5"/></g></g></svg>