<svg height="512" viewBox="0 0 58 55" width="512" xmlns="http://www.w3.org/2000/svg"><g id="Page-1" fill="none" fill-rule="evenodd"><g id="006---Fox" transform="translate(0 -1)"><path id="Path" d="m10.08 21.95c.47-4.51 3.25-14.95 18.92-14.95 7.59 0 11.63 2.85 19.31.73l2.25 2.63c-.3713034 1.1776518-.560157 2.4052004-.56 3.64.0002018 2.6221368-.4149421 5.2277556-1.23 7.72l-3.24 1.05h-33.06z" fill="#e64c3c"/><path id="Path" d="m45.53 22.77c-1.4566109.5632009-2.8060906 1.3715359-3.99 2.39-.2959045.2651783-.7230289.3245011-1.08.15-3.6034685-1.6039356-7.5165554-2.3926992-11.46-2.31-3.9432592.0082509-7.8455437.8002651-11.48 2.33-.3585259.1627359-.7795659.0958417-1.07-.17-1.1809264-1.0174428-2.5269428-1.825729-3.98-2.39 2.18-2.66 7.07-6.77 16.53-6.77s14.35 4.11 16.53 6.77z" fill="#ecf0f1"/><path id="Path" d="m49.6 34.95c.4439592 1.0893678.7984642 2.2130819 1.06 3.36l-18.17 13.36h-6.98l-18.17-13.36c.26153576-1.1469181.61604081-2.2706322 1.06-3.36-3.41-3.42-3.49-10.24-3.38-12.88.01458236-.2768181.14341462-.5351636.35574412-.7133687.21232951-.1782051.48910375-.2602793.76425588-.2266313 1.33082138.1812772 2.64735766.4552771 3.94.82.8116654.2274901 1.6096382.5012716 2.39.82 1.4530572.564271 2.7990736 1.3725572 3.98 2.39.2904341.2658417.7114741.3327359 1.07.17 3.6344563-1.5297349 7.5367408-2.3217491 11.48-2.33 3.9434446-.0826992 7.8565315.7060644 11.46 2.31.3569711.1745011.7840955.1151783 1.08-.15 1.1839094-1.0184641 2.5333891-1.8267991 3.99-2.39 1.0513478-.4329172 2.134571-.7839617 3.24-1.05 1.0193511-.2488349 2.0506787-.445755 3.09-.59.2751521-.033648.5519264.0484262.7642559.2266313s.3411617.4365506.3557441.7133687c.11 2.63.03 9.46-3.38 12.88z" fill="#e57e25"/><path id="Path" d="m29 56c-3.5616044.0286082-7.1137402-.3709232-10.58-1.19-12.17-3.02-16.56-10.94-17.9-14.29-.12947035-.3097747-.09294176-.6640785.09700862-.9409211.18995037-.2768426.50737875-.4384122.84299138-.4290789 1.99162191.0253914 3.97515255-.2579702 5.88-.84 1.24751625-.3555938 2.47017846-.7932133 3.66-1.31 7-3 12 0 13 6 .59 3.52.97 6.49 1.51 8.67.2043249 1.2189738.7172712 2.365357 1.49 3.33.5190467.5705359 1.2321432.9270841 2 1z" fill="#ecf0f1"/><path id="Path" d="m57.48 40.52c-1.34 3.35-5.73 11.27-17.9 14.29-3.4660536.820263-7.0183332 1.2198105-10.58 1.19.7678568-.0729159 1.4809533-.4294641 2-1 .7727288-.964643 1.2856751-2.1110262 1.49-3.33.54-2.18.92-5.15 1.51-8.67 1-6 6-9 13-6 1.1898215.5167867 2.4124837.9544062 3.66 1.31 1.9048474.5820298 3.8883781.8653914 5.88.84.3356126-.0093333.653041.1522363.8429914.4290789s.2264789.6311464.0970086.9409211z" fill="#ecf0f1"/><path id="Path" d="m32.49 51.67c-.2043249 1.2189738-.7172712 2.365357-1.49 3.33-.5190467.5705359-1.2321432.9270841-2 1-.7678568-.0729159-1.4809533-.4294641-2-1-.7727288-.964643-1.2856751-2.1110262-1.49-3.33 1.0940374-.4960021 2.2900654-.725612 3.49-.67 1.1999346-.055612 2.3959626.1739979 3.49.67z" fill="#464f5d"/><path id="Path" d="m13.48 27.88c-1.1324647.9500529-2.1374486 2.0424268-2.99 3.25-.80294706-1.663241-1.27503034-3.466667-1.39-5.31 1.5745702.4106113 3.0595686 1.1090353 4.38 2.06z" fill="#35495e"/><path id="Path" d="m44.52 27.88c1.1324647.9500529 2.1374486 2.0424268 2.99 3.25.8029471-1.663241 1.2750303-3.466667 1.39-5.31-1.5745702.4106113-3.0595686 1.1090353-4.38 2.06z" fill="#35495e"/><circle id="Oval" cx="18" cy="47" fill="#fff" r="3"/><circle id="Oval" cx="18.5" cy="47.5" fill="#464f5d" r="1.5"/><circle id="Oval" cx="18" cy="46" fill="#fff" r="1"/><circle id="Oval" cx="40" cy="47" fill="#fff" r="3"/><circle id="Oval" cx="39.5" cy="47.5" fill="#464f5d" r="1.5"/><circle id="Oval" cx="39" cy="46" fill="#fff" r="1"/><path id="Path" d="m58 6c0 1.32608245-.5267842 2.59785201-1.4644661 3.53553391-.9376819.93768189-2.2094515 1.46446609-3.5355339 1.46446609-.8552491.0032636-1.6964578-.2173813-2.44-.64-1.038564-.58160546-1.836174-1.51392291-2.25-2.63-.6930022-1.87527724-.2023131-3.98310228 1.2476613-5.35950739 1.4499744-1.37640512 3.5804726-1.7567727 5.4171578-.96714996 1.8366853.78962274 3.0264498 2.59742871 3.0251809 4.59665735z" fill="#ecf0f1"/></g></g></svg>