<svg height="512" viewBox="0 0 54 58" width="512" xmlns="http://www.w3.org/2000/svg"><g id="Page-1" fill="none" fill-rule="evenodd"><g id="008---Bear"><path id="Path" d="m8.14 9.1c3.59-5.12 10.83-9.1 18.86-9.1s15.27 3.98 18.86 9.1l-2.33 2.9h-33.06z" fill="#e64c3c"/><path id="Path" d="m41.6 13.91c-.46.88-1.33 2.09-2.6 2.09-.7087588-.0691998-1.392585-.2982816-2-.67-.56-.27-1.2-.61-2-.93-.9680862-.4024316-1.9727403-.7105255-3-.92-.6608316-.1403907-1.3283548-.2471944-2-.32-.62-.07-1.28-.12-2-.14-.32-.01-.66-.02-1-.02s-.68.01-1 .02c-.72.02-1.38.07-2 .14-.6716452.0728056-1.3391684.1796093-2 .32-1.0272597.2094745-2.0319138.5175684-3 .92-.8.32-1.44.66-2 .93-.607415.3717184-1.2912412.6008002-2 .67-1.27 0-2.14-1.21-2.6-2.09l-1.93-3.98c10.0397615-6.57334865 23.0202385-6.57334865 33.06 0z" fill="#c03a2b"/><path id="Path" d="m54 47c0 5-2 11-27 11s-27-6-27-11 2-5 2-12c.03830593-3.9546013.78686582-7.8701453 2.21-11.56.19378987-.4674982-.00148734-1.0055954-.45-1.24-2.74417811-1.4355225-4.21889544-4.5036452-3.62573891-7.5432839.59315654-3.0396388 3.11318454-5.32822489 6.19573891-5.6267161.60377845-.05665537 1.21240061-.0331175 1.81.07.81862753.14058184 1.6068582.42136787 2.33.83.0666195.03067211.130229.06749867.19.11.7399932.4526089 1.3417904 1.0993679 1.74 1.87.46.88 1.33 2.09 2.6 2.09 2 0 4-3 12-3s10 3 12 3c1.27 0 2.14-1.21 2.6-2.09.3974642-.7679489.9952376-1.4140971 1.73-1.87.0644994-.04047629.1312766-.07720378.2-.11.7211711-.41293269 1.5101805-.69399612 2.33-.83.5975994-.1031175 1.2062215-.12665537 1.81-.07 3.0825544.29849121 5.6025824 2.5870773 6.1957389 5.6267161.5931565 3.0396387-.8815608 6.1077614-3.6257389 7.5432839-.4485127.2344046-.6437899.7725018-.45 1.24 1.4231342 3.6898547 2.1716941 7.6053987 2.21 11.56 0 7 2 7 2 12z" fill="#ecf0f1"/><g fill="#802f34"><path id="Path" d="m28 9v2.02c-.32-.01-.66-.02-1-.02s-.68.01-1 .02v-2.02c0-.55228475.4477153-1 1-1s1 .44771525 1 1z"/><path id="Path" d="m32 9v2.48c-.6608316-.1403907-1.3283548-.2471944-2-.32v-2.16c0-.55228475.4477153-1 1-1s1 .44771525 1 1z"/><path id="Path" d="m37 10v3.33c-.56-.27-1.2-.61-2-.93v-2.4c0-.55228475.4477153-1 1-1s1 .44771525 1 1z"/><path id="Path" d="m24 9v2.16c-.6716452.0728056-1.3391684.1796093-2 .32v-2.48c0-.55228475.4477153-1 1-1s1 .44771525 1 1z"/><path id="Path" d="m19 10v2.4c-.8.32-1.44.66-2 .93v-3.33c0-.55228475.4477153-1 1-1s1 .44771525 1 1z"/></g><path id="Path" d="m9.7 14.7c-1.24859176 1.2872565-2.34573279 2.7132044-3.27 4.25-1.38636775-.2675101-2.39856243-1.4655347-2.43082848-2.877107-.03226605-1.4115722.92413057-2.6545953 2.2968271-2.9851728 1.37269652-.3305775 2.79011947.3407743 3.40400138 1.6122798z" fill="#fb7b76"/><path id="Path" d="m50 16c-.0001427 1.437976-1.01867 2.6744597-2.43 2.95-.9242672-1.5367956-2.0214082-2.9627435-3.27-4.25.6089218-1.2572901 2.0050809-1.9278779 3.3670908-1.6172441 1.3620098.3106338 2.3293471 1.5202647 2.3329092 2.9172441z" fill="#fb7b76"/><ellipse id="Oval" cx="27" cy="47" fill="#d1d4d1" rx="14" ry="11"/><path id="Path" d="m32.644 47.241c-.4200835-.3562525-1.0491575-.3057299-1.407.113-.8704925.8748777-2.0113093 1.4296029-3.237 1.574v-8.928c0-.5522847-.4477153-1-1-1s-1 .4477153-1 1v8.928c-1.2229329-.1436042-2.3614872-.6961431-3.231-1.568-.3534622-.424707-.984293-.4824622-1.409-.129s-.4824622.984293-.129 1.409c1.5034835 1.5659899 3.5990259 2.4232407 5.769 2.36 2.1699284.0629889 4.2653726-.7942218 5.769-2.36.3479624-.4220377.292271-1.0453355-.125-1.399z" fill="#547580"/><ellipse id="Oval" cx="27" cy="39" fill="#464f5d" rx="5" ry="3"/><circle id="Oval" cx="38" cy="31" fill="#fff" r="4"/><circle id="Oval" cx="37.333" cy="31.667" fill="#464f5d" r="2"/><circle id="Oval" cx="36.667" cy="29.667" fill="#fff" r="1.333"/><circle id="Oval" cx="16" cy="31" fill="#fff" r="4"/><circle id="Oval" cx="16.667" cy="31.667" fill="#464f5d" r="2"/><circle id="Oval" cx="16" cy="29.667" fill="#fff" r="1.333"/><path id="Path" d="m10 26c-.36770353-.0010448-.70517122-.2038019-.87873985-.5279637-.17356862-.3241619-.1552348-.7174286.04773985-1.0240363 1.5994518-2.1698435 4.1353622-3.4498638 6.831-3.448.5522847 0 1 .4477153 1 1s-.4477153 1-1 1c-2.0301433-.0074841-3.9455612.9404088-5.171 2.559-.1858453.2756654-.4965396.4409443-.829.441z" fill="#95a5a5"/><path id="Path" d="m44 26c-.3328144.0002769-.6439568-.1650409-.83-.441-1.2252272-1.6183093-3.1402081-2.5661693-5.17-2.559-.5522847 0-1-.4477153-1-1s.4477153-1 1-1c2.6954559-.0028843 5.2317028 1.2760049 6.832 3.445.2047322.3068587.2239019.7015085.049874 1.026765-.174028.3252566-.5129871.5282902-.881874.528235z" fill="#95a5a5"/></g></g></svg>