<svg height="512" viewBox="0 0 56 59" width="512" xmlns="http://www.w3.org/2000/svg"><g id="Page-1" fill="none" fill-rule="evenodd"><g id="011---Bear"><path id="Path" d="m21.02 7.54c-.01-.18-.02-.36-.02-.54 0-3.86599325 3.1340068-7 7-7s7 3.13400675 7 7c0 .18-.01.36-.02.54z" fill="#f5efca"/><path id="Path" d="m7.9 17.1c3.425108-4.3178591 7.9603968-7.62253597 13.12-9.56 2.2249121-.89768066 4.5839164-1.41814866 6.98-1.54 2.3960836.12185134 4.7550879.64231934 6.98 1.54 5.1596032 1.93746403 9.694892 5.2421409 13.12 9.56z" fill="#2980ba"/><path id="Path" d="m5 48.8v6.71c.05500156.9292351-.41082886 1.8120781-1.20893329 2.2911734-.79810444.4790953-1.79629967.4750946-2.59053808-.0103829s-1.25297708-1.3720262-1.19052863-2.3007905c.05-4.99.23-16.15.99-21.49.74178447-6.1487019 3.12133458-11.9853342 6.89-16.9h.01c6.5338258-1.9158779 13.2925496-2.9582682 20.1-3.1 6.8074504.1417318 13.5661742 1.1841221 20.1 3.1h.01c3.7686654 4.9146658 6.1482155 10.7512981 6.89 16.9.76 5.34.94 16.5.99 21.49v.02c-.0834014 1.3167124-1.1756489 2.3419652-2.495 2.3419652s-2.4115986-1.0252528-2.495-2.3419652v-6.71z" fill="#3b97d3"/><path id="Path" d="m13 31c1.3426514-1.8696155 3.4982751-2.9845933 5.8-3" stroke="#000" stroke-linecap="round" stroke-linejoin="round" stroke-width="2"/><path id="Path" d="m43 31c-1.3426514-1.8696155-3.4982751-2.9845933-5.8-3" stroke="#000" stroke-linecap="round" stroke-linejoin="round" stroke-width="2"/><path id="Path" d="m51 48.8v.2c-.06 4.14-2.04 9-23 9s-22.94-4.86-23-9v-.2c0-4.19 1.7-4.19 1.7-10.04 0-2.67-.07-6.2 1.3-9.68 3-5.08 7-9.08 20-9.08s17 4 20 9.08c1.37 3.48 1.3 7.01 1.3 9.68 0 5.85 1.7 5.85 1.7 10.04z" fill="#a56a43"/><ellipse id="Oval" cx="28" cy="47" fill="#f5efca" rx="14" ry="11"/><path id="Path" d="m33.644 47.241c-.4200835-.3562525-1.0491575-.3057299-1.407.113-.8704925.8748777-2.0113093 1.4296029-3.237 1.574v-8.928c0-.5522847-.4477153-1-1-1s-1 .4477153-1 1v8.928c-1.2229329-.1436042-2.3614872-.6961431-3.231-1.568-.3534622-.424707-.984293-.4824622-1.409-.129s-.4824622.984293-.129 1.409c1.5034835 1.5659899 3.5990259 2.4232407 5.769 2.36 2.1699284.0629889 4.2653726-.7942218 5.769-2.36.3479624-.4220377.292271-1.0453355-.125-1.399z" fill="#a59078"/><ellipse id="Oval" cx="28" cy="39" fill="#464f5d" rx="5" ry="3"/><circle id="Oval" cx="39" cy="31" fill="#fff" r="4"/><circle id="Oval" cx="38.333" cy="31.667" fill="#464f5d" r="2"/><circle id="Oval" cx="37.667" cy="29.667" fill="#fff" r="1.333"/><circle id="Oval" cx="17" cy="31" fill="#fff" r="4"/><circle id="Oval" cx="17.667" cy="31.667" fill="#464f5d" r="2"/><circle id="Oval" cx="17" cy="29.667" fill="#fff" r="1.333"/></g></g></svg>