<svg height="512" viewBox="0 0 46 58" width="512" xmlns="http://www.w3.org/2000/svg"><g id="Page-1" fill="none" fill-rule="evenodd"><g id="014---Walrus"><path id="Path" d="m27.94 5.76c.0402364-.2513278.0603004-.50547193.06-.76 0-2.76142375-2.2385763-5-5-5s-5 2.23857625-5 5c-.0003004.25452807.0197636.5086722.06.76z" fill="#3b97d3"/><path id="Path" d="m6.79 45.29-.61 6.71c-.04903839.543798-.29854048 1.0499308-.7 1.42-.40738864.3716874-.93853412.578442-1.49.58-1.1324177.0014528-2.0784666-.8621423-2.18-1.99-.48-5.13-1.61-18.98-.81-27.01 1-10 12-20 22-20s21 10 22 20c.8 8.03-.33 21.88-.81 27.01-.0465679.5444892-.2964877 1.0514694-.7 1.42-.6178762.5610886-1.5000475.7242246-2.2777188.4212083-.7776712-.3030163-1.3169083-1.0199981-1.3922812-1.8512083l-.61-6.71" fill="#67b9cc"/><path id="Path" d="m31 46.26v2.74s-2 2-8 2-8-2-8-2v-2.74c1.73-.88 3.26-2.26 8-2.26s6.27 1.38 8 2.26z" fill="#a65a47"/><path id="Path" d="m38.12 35.83c1.1678464 1.8512206 1.8171241 3.9820947 1.88 6.17.0365739 1.1476787-.2362958 2.2840598-.79 3.29-.9597533 1.5173024-2.5717129 2.5007456-4.36 2.66-.31.03-.59.05-.85.05-1.046988.0153416-2.0802459-.2395286-3-.74-1.73-.88-3.26-2.26-8-2.26s-6.27 1.38-8 2.26c-.9197541.5004714-1.953012.7553416-3 .74-.26 0-.54-.02-.85-.05-1.78828714-.1592544-3.40024669-1.1426976-4.36-2.66-.55370422-1.0059402-.82657385-2.1423213-.79-3.29.06287593-2.1879053.71215362-4.3187794 1.88-6.17.36462841-.5843722.3950153-1.317456.08-1.93-1.61453338-3.0475075-2.25667963-6.5164933-1.84-9.94.04-.33.09-.66.15-.98.15124802-.8205084.63660008-1.5412924 1.34-1.99 4.03-2.66 8.96-3.99 15.39-3.99s11.35 1.33 15.39 3.99c.7175836.470171 1.2095754 1.215394 1.36 2.06.1647312.9747327.248351 1.9614468.25 2.95-.000714 2.7611809-.6770474 5.4802472-1.97 7.92-.3066266.6084805-.2724846 1.3330483.09 1.91z" fill="#cc6f56"/><path id="Path" d="m27 33c-.1883664 2.126237-1.873763 3.8116336-4 4-2.126237-.1883664-3.8116336-1.873763-4-4 0-1.657 1.791-2 4-2s4 .343 4 2z" fill="#464f5d"/><path id="Path" d="m15 47.26v10.74s-3.12-3.12-3.85-10.05c.31.03.59.05.85.05 1.046988.0153416 2.0802459-.2395286 3-.74z" fill="#f9eab0"/><path id="Path" d="m34.85 47.95c-.73 6.93-3.85 10.05-3.85 10.05v-10.74c.9197541.5004714 1.953012.7553416 3 .74.26 0 .54-.02.85-.05z" fill="#f9eab0"/><g fill="#a65a47"><circle id="Oval" cx="10" cy="41" r="1"/><circle id="Oval" cx="12" cy="44" r="1"/><circle id="Oval" cx="36" cy="41" r="1"/><circle id="Oval" cx="34" cy="44" r="1"/></g><circle id="Oval" cx="14" cy="30" fill="#fff" r="3"/><circle id="Oval" cx="14.5" cy="30.5" fill="#464f5d" r="1.5"/><circle id="Oval" cx="14" cy="29" fill="#fff" r="1"/><circle id="Oval" cx="32" cy="30" fill="#fff" r="3"/><circle id="Oval" cx="31.5" cy="30.5" fill="#464f5d" r="1.5"/><circle id="Oval" cx="31" cy="29" fill="#fff" r="1"/></g></g></svg>