<svg height="512" viewBox="0 0 52 58" width="512" xmlns="http://www.w3.org/2000/svg"><g id="Page-1" fill="none" fill-rule="evenodd"><g id="017---Rabbit"><path id="Path" d="m18.2 18.54-17.96-14.22c.05-2.43 1.61-4.32 5.76-4.32 7.72 0 13.65 11.91 15.96 17.35z" fill="#805333"/><path id="Path" d="m30.04 17.35c2.31-5.44 8.24-17.35 15.96-17.35 4.15 0 5.71 1.89 5.76 4.32l-17.96 14.22z" fill="#805333"/><path id="Path" d="m40.48 49.31c.3411818.4973353.5225835 1.0868908.52 1.69v4c.0061167 1.2713341-.798164 2.40537-2 2.82-.3193958.1211006-.6584234.1821256-1 .18h-24c-.3415766.0021256-.6806042-.0588994-1-.18-1.201836-.41463-2.0061167-1.5486659-2-2.82v-4c-.0025835-.6031092.1788182-1.1926647.52-1.69z" fill="#3b97d3"/><path id="Path" d="m18.2 18.54c-1.4132868.6471356-2.681823 1.5721807-3.73 2.72-2.3474533-2.9255079-5.21988752-5.3875944-8.47-7.26-2.93-1.76-5.85-6.25-5.76-9.68 1.55-1.41 4.62-2.46 9.76 2.68 3.4633668 3.2719575 6.2495526 7.1930044 8.2 11.54z" fill="#d75e72"/><path id="Path" d="m46 41c0 3.87-2.1 6.56-5.52 8.31-3.65 1.89-8.8 2.69-14.48 2.69s-10.83-.8-14.48-2.69c-3.42-1.75-5.52-4.44-5.52-8.31 0-5 5-6 5-6s-1.4-8.42 3.47-13.74c1.048177-1.1478193 2.3167132-2.0728644 3.73-2.72 1.1953141-.5608898 2.4596355-.9610341 3.76-1.19 1.3327405-.2428815 2.685346-.3600627 4.04-.35 1.354654-.0100627 2.7072595.1071185 4.04.35 1.3003645.2289659 2.5646859.6291102 3.76 1.19 1.4132868.6471356 2.681823 1.5721807 3.73 2.72 4.87 5.32 3.47 13.74 3.47 13.74s5 1 5 6z" fill="#a56a43"/><path id="Path" d="m51.76 4.32c.09 3.43-2.83 7.92-5.76 9.68-3.2501125 1.8724056-6.1225467 4.3344921-8.47 7.26-1.048177-1.1478193-2.3167132-2.0728644-3.73-2.72 1.9504474-4.3469956 4.7366332-8.2680425 8.2-11.54 5.14-5.14 8.21-4.09 9.76-2.68z" fill="#d75e72"/><path id="Path" d="m30 43.5c-.5522847 0-1 .4477153-1 1 0 .8284271-.6715729 1.5-1.5 1.5-.1709093-.0006144-.3402999-.032121-.5-.093v-3.907c0-.5522847-.4477153-1-1-1s-1 .4477153-1 1v3.907c-.1597001.060879-.3290907.0923856-.5.093-.8284271 0-1.5-.6715729-1.5-1.5 0-.5522847-.4477153-1-1-1s-1 .4477153-1 1c0 1.9329966 1.5670034 3.5 3.5 3.5.5195702.0001507 1.0324171-.1174622 1.5-.344.4675829.2265378.9804298.3441507 1.5.344 1.9329966 0 3.5-1.5670034 3.5-3.5 0-.5522847-.4477153-1-1-1z" fill="#603e26"/><g fill="#285680"><path id="Path" d="m27 56v2h-2v-2c0-.5522847.4477153-1 1-1s1 .4477153 1 1z"/><path id="Path" d="m31 56v2h-2v-2c0-.5522847.4477153-1 1-1s1 .4477153 1 1z"/><path id="Path" d="m35 55v3h-2v-3c0-.5522847.4477153-1 1-1s1 .4477153 1 1z"/><path id="Path" d="m39 55v2.82c-.3193958.1211006-.6584234.1821256-1 .18h-1v-3c0-.5522847.4477153-1 1-1s1 .4477153 1 1z"/><path id="Path" d="m23 56v2h-2v-2c0-.5522847.4477153-1 1-1s1 .4477153 1 1z"/><path id="Path" d="m19 55v3h-2v-3c0-.5522847.4477153-1 1-1s1 .4477153 1 1z"/><path id="Path" d="m15 55v3h-1c-.3415766.0021256-.6806042-.0588994-1-.18v-2.82c0-.5522847.4477153-1 1-1s1 .4477153 1 1z"/></g><circle id="Oval" cx="18" cy="35" fill="#fff" r="3"/><circle id="Oval" cx="18.5" cy="35.5" fill="#464f5d" r="1.5"/><circle id="Oval" cx="18" cy="34" fill="#fff" r="1"/><circle id="Oval" cx="34" cy="35" fill="#fff" r="3"/><circle id="Oval" cx="33.5" cy="35.5" fill="#464f5d" r="1.5"/><circle id="Oval" cx="33" cy="34" fill="#fff" r="1"/><path id="Path" d="m26 43c-.1547301.0016999-.3077438-.0325313-.447-.1l-2-1c-.4942948-.2468713-.6948713-.8477051-.448-1.342.2468713-.4942948.8477052-.6948713 1.342-.448l1.553.772 1.553-.777c.3197527-.1596977.7004141-.1366785.9985927.0603866.2981787.1970651.4685741.5382372.447.895-.021574.3567629-.23184.6749157-.5515927.8346134l-2 1c-.1388389.0691972-.2918727.1051447-.447.105z" fill="#fb7b76"/></g></g></svg>