<svg height="512" viewBox="0 0 58 54" width="512" xmlns="http://www.w3.org/2000/svg"><g id="Page-1" fill="none" fill-rule="evenodd"><g id="023---Penguin" transform="translate(-3)"><path id="Path" d="m14.89 17.92c4.6156329-4.3988506 10.7341248-6.8734248 17.11-6.92 6.405265.0457654 12.5496323 2.543592 17.17 6.98l8.89 15.58c.6313873 2.6162201.9469707 5.298679.94 7.99.0306347 3.756917-.5561804 7.4933448-1.737 11.06-.271601.8244953-1.038944 1.3838067-1.907 1.39h-46.712c-.86805601-.0061933-1.63539904-.5655047-1.907-1.39-1.18159805-3.5664665-1.76843352-7.3030239-1.737-11.06-.00472661-2.7154635.31759409-5.4216143.96-8.06z" fill="#464f5d"/><path id="Path" d="m15.11 54-.89-2.26s-2.14-5.48-2.21-16.42c-.01-.18-.01-.38-.01-.56-.0002186-.3874478.0198087-.7746424.06-1.16l5.67-8.4c1.4895486-.7828163 3.1472775-1.1912423 4.83-1.19 4.0201323.0144104 7.681898 2.3146509 9.44 5.93 1.758102-3.6153491 5.4198677-5.9155896 9.44-5.93 1.6802685-.0073214 3.3362077.4015101 4.82 1.19l5.69 8.51c.03.35.05.7.05 1.05 0 .18 0 .38-.01.56-.07 10.94-2.21 16.42-2.21 16.42l-.89 2.26z" fill="#ecf0f1"/><path id="Path" d="m32.68 42.471c.9496965-1.0429269 1.6674789-2.2753586 2.106-3.616.1533904-.4346913-.0122016-.9178061-.4-1.167-1.4618693-.9166049-3.3191307-.9166049-4.781 0-.3877984.2491939-.5533904.7323087-.4 1.167.4385211 1.3406414 1.1563035 2.5730731 2.106 3.616.3825978.3668677.9864022.3668677 1.369 0z" fill="#f29c1f"/><path id="Path" d="m55.54 17.98h-.01c-1.3-5.75-6.13-17.98-23.53-17.98-17.29 0-22.17 12.07-23.51 17.87l4.3-.78c1.54-5.06 6.07-13.09 19.21-13.09 13.23 0 17.72 8.13 19.24 13.19z" fill="#95a5a5"/><circle id="Oval" cx="20" cy="34" fill="#fff" r="3"/><circle id="Oval" cx="20.5" cy="34.5" fill="#464f5d" r="1.5"/><circle id="Oval" cx="20" cy="33" fill="#fff" r="1"/><circle id="Oval" cx="44" cy="34" fill="#fff" r="3"/><circle id="Oval" cx="43.5" cy="34.5" fill="#464f5d" r="1.5"/><circle id="Oval" cx="43" cy="33" fill="#fff" r="1"/><g fill="#3b97d3"><ellipse id="Oval" cx="10.394" cy="25.682" rx="9" ry="7" transform="matrix(.421 -.907 .907 .421 -17.277 24.307)"/><ellipse id="Oval" cx="53.605" cy="25.78" rx="7" ry="9" transform="matrix(.907 -.421 .421 .907 -5.871 24.944)"/></g></g></g></svg>