<svg height="512" viewBox="0 0 48 58" width="512" xmlns="http://www.w3.org/2000/svg"><g id="Page-1" fill="none" fill-rule="evenodd"><g id="024---Squirrel" transform="translate(-1)"><path id="Path" d="m9.56 9.18c2.28-3.55 9.44-9.18 15.44-9.18 7 0 13.16 5.63 15.44 9.18l-3.18 1.67h-24.52z" fill="#e64c3c"/><path id="Path" d="m12.74 10.85c3.6239801-2.45103016 7.8854042-3.78924246 12.26-3.85 4.3745958.06075754 8.6360199 1.39896984 12.26 3.85l-1.96 3.13h-20.6z" fill="#c03a2b"/><path id="Path" d="m44.77 22.43c.6147272 1.1602712 1.1009412 2.3841892 1.45 3.65l-19.18 22.07c-.6742691-.1098653-1.3569129-.1600597-2.04-.15-.6830871-.0100597-1.3657309.0401347-2.04.15l-19.18-22.07c.34905879-1.2658108.83527279-2.4897288 1.45-3.65-3.05165661-1.3131061-4.75999993-4.5903301-4.08891132-7.8440197.67108861-3.2536895 3.53673534-5.58750688 6.85891132-5.5859803.52527781-.0017107 1.0489147.05870894 1.56.18 2.4528913.55729224 4.416403 2.3909218 5.14 4.8 1.3879935-.5809269 2.8277083-1.0295823 4.3-1.34.65-.15 1.32-.27 2-.36.9943268-.1429107 1.9959123-.2297148 3-.26.33-.01.66-.02 1-.02s.67.01 1 .02c1.0040877.0302852 2.0056732.1170893 3 .26.68.09 1.35.21 2 .36 1.4722917.3104177 2.9120065.7590731 4.3 1.34.723597-2.4090782 2.6871087-4.24270776 5.14-4.8.5110853-.12129106 1.0347222-.1817107 1.56-.18 3.322176-.00152658 6.1878227 2.3322908 6.8589113 5.5859803.6710886 3.2536896-1.0372547 6.5309136-4.0889113 7.8440197z" fill="#a56a43"/><path id="Path" d="m11 15.98c-1.24948818.8524-2.38821275 1.8567618-3.39 2.99-1.5905523-.2085632-2.73559262-1.6314891-2.59907729-3.2298379.13651532-1.5983488 1.50627525-2.8064851 3.10915859-2.7422962 1.60288334.0641888 2.8716502 1.3779873 2.8799187 2.9821341z" fill="#fb7b76"/><path id="Path" d="m45 16c.0039189 1.5067043-1.1152829 2.7802788-2.61 2.97-1.0017873-1.1332382-2.1405118-2.1376-3.39-2.99.0035727-1.0717968.5786707-2.0602718 1.5086603-2.5930762.9299895-.5328044 2.0735831-.5289924 3 .01s1.4949124 1.5312794 1.4913397 2.6030762z" fill="#fb7b76"/><path id="Path" d="m47 31.86c-.1197009 8.4087028-3.8943734 16.3486568-10.34 21.75-3.2668827 2.7594658-7.3844032 4.3097158-11.66 4.39-4.2755968-.0802842-8.3931173-1.6305342-11.66-4.39-6.44562663-5.4013432-10.22029905-13.3412972-10.34-21.75-.012527-1.9537235.25004952-3.8994828.78-5.78 10.869506.9193772 19.2229522 10.0116818 19.22 20.92 0 .39-.01.77-.04 1.15v.01c-1.18.22-1.96.74-1.96 1.84.1860148 2.1273342 1.8726658 3.8139852 4 4 2.1273342-.1860148 3.8139852-1.8726658 4-4 0-1.1-.78-1.62-1.96-1.84v-.01c-.03-.38-.04-.76-.04-1.15-.0029522-10.9083182 8.350494-20.0006228 19.22-20.92.5299505 1.8805172.792527 3.8262765.78 5.78z" fill="#cf976a"/><path id="Path" d="m29 50c-.1860148 2.1273342-1.8726658 3.8139852-4 4-2.1273342-.1860148-3.8139852-1.8726658-4-4 0-1.1.78-1.62 1.96-1.84v-.01c.6742691-.1098653 1.3569129-.1600597 2.04-.15.6830871-.0100597 1.3657309.0401347 2.04.15v.01c1.18.22 1.96.74 1.96 1.84z" fill="#464f5d"/><g fill="#805333"><path id="Path" d="m26 12.02v12.98c0 .5522847-.4477153 1-1 1s-1-.4477153-1-1v-12.98c.33-.01.66-.02 1-.02s.67.01 1 .02z"/><path id="Path" d="m31 12.64v8.36c0 .5522847-.4477153 1-1 1s-1-.4477153-1-1v-8.72c.68.09 1.35.21 2 .36z"/><path id="Path" d="m21 12.28v8.72c0 .5522847-.4477153 1-1 1s-1-.4477153-1-1v-8.36c.65-.15 1.32-.27 2-.36z"/></g><circle id="Oval" cx="15" cy="40" fill="#fff" r="3"/><circle id="Oval" cx="15.5" cy="40.5" fill="#464f5d" r="1.5"/><circle id="Oval" cx="15" cy="39" fill="#fff" r="1"/><circle id="Oval" cx="35" cy="40" fill="#fff" r="3"/><circle id="Oval" cx="34.5" cy="40.5" fill="#464f5d" r="1.5"/><circle id="Oval" cx="34" cy="39" fill="#fff" r="1"/></g></g></svg>