<svg height="512" viewBox="0 0 58 58" width="512" xmlns="http://www.w3.org/2000/svg"><g id="Page-1" fill="none" fill-rule="evenodd"><g id="026---Mouse" transform="translate(0 -1)"><path id="Path" d="m27 53h12v5c0 .5522847-.4477153 1-1 1h-10c-.5522847 0-1-.4477153-1-1z" fill="#c03a2b"/><path id="Path" d="m39.5 44h1.03c1.504881.1568598 2.604968 1.4929979 2.47 3v5c.134968 1.5070021-.965119 2.8431402-2.47 3h-23.06c-1.504881-.1568598-2.604968-1.4929979-2.47-3v-5c-.134968-1.5070021.965119-2.8431402 2.47-3z" fill="#e64c3c"/><path id="Path" d="m58 13c.0031401-6.31868163-4.8964244-11.55612167-11.2012912-11.97373594-6.3048669-.41761428-11.8524192 4.12784206-12.6827088 10.39173594-1.6899439-.2877562-3.4017592-.4276191-5.116-.418-1.7142408-.0096191-3.4260561.1302438-5.116.418-.8301481-6.27673249-6.3961047-10.82717664-12.712604-10.39318114-6.31649942.43399549-11.20778329 5.70293812-11.1716566 12.03422644.0361267 6.3312883 4.98721988 11.5440697 11.3082606 11.9059547-.214961 4.1819253.7158341 8.343188 2.692 12.035 4.1 7.13 8.85 14 15 14s10.9-6.87 15-14c1.9761659-3.691812 2.906961-7.8530747 2.692-12.035 6.3445112-.361465 11.3050383-5.610201 11.308-11.965z" fill="#cb8252"/><path id="Path" d="m18.645 13.087c-2.7693788 1.343161-4.9533482 3.6508721-6.142 6.49-.361235.902075-1.3158115 1.4168224-2.268 1.223-3.79941739-.8590582-6.42780281-4.3298138-6.22484839-8.2198476.20295441-3.89003383 3.17824545-7.06842932 7.04643069-7.52744632 3.8681852-.45901699 7.5047 1.93479062 8.6124177 5.66929392.2758827.9322579-.1553802 1.9282899-1.024 2.365z" fill="#a65a47"/><path id="Path" d="m53.95 12.094c.4627387 4.0561756-2.2029326 7.810096-6.185 8.71-.9522496.1916954-1.9054157-.3246555-2.265-1.227-1.1886518-2.8391279-3.3726212-5.146839-6.142-6.49-.8667589-.4363963-1.2976885-1.4299751-1.024-2.361 1.0832654-3.64301826 4.5801546-6.02099558 8.3663184-5.68931832 3.7861637.33167725 6.8163297 3.28144065 7.2496816 7.05731832z" fill="#a65a47"/><path id="Path" d="m33 43c-.1883664 2.126237-1.873763 3.8116336-4 4-2.126237-.1883664-3.8116336-1.873763-4-4 0-1.657 1.791-2 4-2s4 .343 4 2z" fill="#e64c3c"/><circle id="Oval" cx="20" cy="32" fill="#fff" r="4"/><circle id="Oval" cx="20.667" cy="32.667" fill="#464f5d" r="2"/><circle id="Oval" cx="20" cy="30.667" fill="#fff" r="1.333"/><circle id="Oval" cx="38" cy="32" fill="#fff" r="4"/><circle id="Oval" cx="37.333" cy="32.667" fill="#464f5d" r="2"/><circle id="Oval" cx="36.667" cy="30.667" fill="#fff" r="1.333"/></g></g></svg>