<svg height="512" viewBox="0 0 48 58" width="512" xmlns="http://www.w3.org/2000/svg"><g id="Page-1" fill="none" fill-rule="evenodd"><g id="027---Robin" transform="translate(-1)"><path id="Path" d="m23 48h12v9c0 .5522847-.4477153 1-1 1h-10c-.5522847 0-1-.4477153-1-1z" fill="#24ae5f"/><path id="Path" d="m5.87 42.01c-3.24800204-4.2916405-4.96277526-9.5486351-4.87-14.93 0-14.36 10.75-27.08 24-27.08s24 12.72 24 27.08c.0927753 5.3813649-1.621998 10.6383595-4.87 14.93l-19.13 1.99z" fill="#a56a43"/><path id="Path" d="m11 42c3.6489774-3.8315651 8.7088822-6.00015 14-6.00015s10.3510226 2.1685849 14 6.00015z" fill="#e64c3c"/><path id="Path" d="m25.6 30.613c1.2198866-1.114288 2.23759-2.4314155 3.008-3.893.2410073-.4276837.1359279-.9670633-.248-1.273-.9409054-.8221799-2.1161379-1.3282993-3.36-1.447-1.245264.1178852-2.4220123.6240549-3.364 1.447-.3839279.3059367-.4890073.8453163-.248 1.273.7716123 1.4618934 1.7906842 2.7790406 3.012 3.893.3544214.2700476.8455786.2700476 1.2 0z" fill="#f29c1f"/><rect id="Rectangle" fill="#4fba6f" height="8" rx="2" width="42" x="4" y="42"/><g fill="#24ae5f"><path id="Path" d="m26 46v4h-2v-4c0-.5522847.4477153-1 1-1s1 .4477153 1 1z"/><path id="Path" d="m30 46v4h-2v-4c0-.5522847.4477153-1 1-1s1 .4477153 1 1z"/><path id="Path" d="m34 46v4h-2v-4c0-.5522847.4477153-1 1-1s1 .4477153 1 1z"/><path id="Path" d="m38 46v4h-2v-4c0-.5522847.4477153-1 1-1s1 .4477153 1 1z"/><path id="Path" d="m42 46v4h-2v-4c0-.5522847.4477153-1 1-1s1 .4477153 1 1z"/><path id="Path" d="m22 46v4h-2v-4c0-.5522847.4477153-1 1-1s1 .4477153 1 1z"/><path id="Path" d="m18 46v4h-2v-4c0-.5522847.4477153-1 1-1s1 .4477153 1 1z"/><path id="Path" d="m14 46v4h-2v-4c0-.5522847.4477153-1 1-1s1 .4477153 1 1z"/><path id="Path" d="m10 46v4h-2v-4c0-.5522847.44771525-1 1-1s1 .4477153 1 1z"/></g><path id="Shape" d="m26.84 10c-.5522847 0-1-.44771525-1-1-.0143121-.12231011-.0442218-.24228509-.089-.357-1.09041.92145016-2.4842011 1.405054-3.911 1.357-.4043959-.00008635-.7689341-.2437275-.923678-.61734544s-.0692299-.80366031.216678-1.08965456c.3713887-.32709959.5841936-.79810236.5841936-1.293s-.2128049-.96590041-.5841936-1.293c-.3789722-.39237889-.3735524-1.01608478.0121814-1.40181858.3857338-.38573379 1.0094397-.39115363 1.4018186-.01218142.9292206.84463891 1.3484512 2.114092 1.105 3.346.5359923-.2245.9898806-.60855935 1.3-1.1.1511082-.28002694.4245699-.47318932.739-.522.3127778-.04900341.6302854.0529996.856.275.365718.36102026.6697528.77957484.9 1.239.5604689-.59498946.7324404-1.45756417.443-2.222-.1728651-.52467051.1123295-1.09013486.637-1.26299998s1.0901349.11232948 1.263.63699998c.2038716.67442309.2608173 1.38471034.167 2.083-.2176556 1.52303536-1.317021 2.77238564-2.8 3.182-.1022159.03413391-.2092359.05168924-.317.052z" fill="#805333" fill-rule="nonzero"/><circle id="Oval" cx="12" cy="23" fill="#fff" r="3"/><circle id="Oval" cx="12.5" cy="23.5" fill="#464f5d" r="1.5"/><circle id="Oval" cx="12" cy="22" fill="#fff" r="1"/><circle id="Oval" cx="38" cy="23" fill="#fff" r="3"/><circle id="Oval" cx="37.5" cy="23.5" fill="#464f5d" r="1.5"/><circle id="Oval" cx="37" cy="22" fill="#fff" r="1"/></g></g></svg>