<svg height="512" viewBox="0 0 52 58" width="512" xmlns="http://www.w3.org/2000/svg"><g id="Page-1" fill="none" fill-rule="evenodd"><g id="028---Rabbit"><path id="Path" d="m23.04 6.68c-.670889-.73105119-1.0421524-1.68776858-1.04-2.68.0000001-2.20913895 1.790861-3.99999988 4-3.99999988s3.9999999 1.79086093 4 3.99999988c.0021524.99223142-.369111 1.94894881-1.04 2.68z" fill="#ecf0f1"/><path id="Path" d="m32.44 18.33h-12.88l-3.97-6.24c2.1443397-2.22916521 4.6666501-4.06080266 7.45-5.41.9312609-.42234281 1.9377858-.65357152 2.96-.68 1.0222142.02642848 2.0287391.25765719 2.96.68 2.7833499 1.34919734 5.3056603 3.18083479 7.45 5.41z" fill="#3b97d3"/><path id="Path" d="m.24 10.32c.05-2.43 1.61-4.32 5.76-4.32 3.67 0 6.93 2.69 9.59 6.09 1.5001712 1.9620648 2.828421 4.0497925 3.97 6.24-1.2816906.4933584-2.5110854 1.1130806-3.67 1.85z" fill="#805333"/><path id="Path" d="m46 47c0 8-9 11-20 11s-20-3-20-11c0-5 5-6 5-6-.4766368-3.4771264-.0460318-7.0184218 1.25-10.28 1.12-1.18 5.92-7.72 13.75-7.72s12.63 6.54 13.75 7.72c1.2960318 3.2615782 1.7266368 6.8028736 1.25 10.28 0 0 5 1 5 6z" fill="#a56a43"/><path id="Path" d="m36.11 20.18c-1.1589146-.7369194-2.3883094-1.3566416-3.67-1.85 1.141579-2.1902075 2.4698288-4.2779352 3.97-6.24 2.66-3.4 5.92-6.09 9.59-6.09 4.15 0 5.71 1.89 5.76 4.32z" fill="#805333"/><path id="Path" d="m40 31s-.08-.1-.25-.28c-3.6389428-3.6613597-8.5878822-5.7201851-13.75-5.7201851s-10.1110572 2.0588254-13.75 5.7201851c-.17.18-.25.28-.25.28-2.19-2.1-1-6-1-6 .1782035-.2998063.3717955-.5901943.58-.87 1.1768118-1.5747887 2.6387979-2.9146599 4.31-3.95 1.1589146-.7369194 2.3883094-1.3566416 3.67-1.85 2.04745-.8328378 4.2301317-1.283609 6.44-1.33 2.2098683.046391 4.39255.4971622 6.44 1.33 1.2816906.4933584 2.5110854 1.1130806 3.67 1.85 1.6712021 1.0353401 3.1331882 2.3752113 4.31 3.95.2082045.2798057.4017965.5701937.58.87 0 0 1.19 3.9-1 6z" fill="#2980ba"/><path id="Path" d="m30 49.5c-.5522847 0-1 .4477153-1 1 0 .8284271-.6715729 1.5-1.5 1.5-.1709093-.0006144-.3402999-.032121-.5-.093v-3.907c0-.5522847-.4477153-1-1-1s-1 .4477153-1 1v3.907c-.1597001.060879-.3290907.0923856-.5.093-.8284271 0-1.5-.6715729-1.5-1.5 0-.5522847-.4477153-1-1-1s-1 .4477153-1 1c0 1.9329966 1.5670034 3.5 3.5 3.5.5195702.0001507 1.0324171-.1174622 1.5-.344.4675829.2265378.9804298.3441507 1.5.344 1.9329966 0 3.5-1.5670034 3.5-3.5 0-.5522847-.4477153-1-1-1z" fill="#603e26"/><circle id="Oval" cx="18" cy="41" fill="#fff" r="3"/><circle id="Oval" cx="18.5" cy="41.5" fill="#464f5d" r="1.5"/><circle id="Oval" cx="18" cy="40" fill="#fff" r="1"/><circle id="Oval" cx="34" cy="41" fill="#fff" r="3"/><circle id="Oval" cx="33.5" cy="41.5" fill="#464f5d" r="1.5"/><circle id="Oval" cx="33" cy="40" fill="#fff" r="1"/><path id="Path" d="m26 49c-.1547301.0016999-.3077438-.0325313-.447-.1l-2-1c-.4942948-.2468713-.6948713-.8477051-.448-1.342.2468713-.4942948.8477052-.6948713 1.342-.448l1.553.772 1.553-.777c.3197527-.1596977.7004141-.1366785.9985927.0603866.2981787.1970651.4685741.5382372.447.895-.021574.3567629-.23184.6749157-.5515927.8346134l-2 1c-.1388389.0691972-.2918727.1051447-.447.105z" fill="#fb7b76"/><g fill="#d75e72"><path id="Path" d="m15.89 20.18c-1.6712021 1.0353401-3.1331882 2.3752113-4.31 3.95-1.71455791-1.56303-3.5842574-2.9468757-5.58-4.13-2.93-1.76-5.85-6.25-5.76-9.68 1.55-1.41 4.62-2.46 9.76 2.68 2.2139671 2.176254 4.1885548 4.5833067 5.89 7.18z"/><path id="Path" d="m51.76 10.32c.09 3.43-2.83 7.92-5.76 9.68-1.9957426 1.1831243-3.8654421 2.56697-5.58 4.13-1.1768118-1.5747887-2.6387979-2.9146599-4.31-3.95 1.7014452-2.5966933 3.6760329-5.003746 5.89-7.18 5.14-5.14 8.21-4.09 9.76-2.68z"/></g></g></g></svg>